<?xml version="1.0" standalone="no"?>
<!DOCTYPE svg PUBLIC "-//W3C//DTD SVG 1.1//EN" "http://www.w3.org/Graphics/SVG/1.1/DTD/svg11.dtd" >
<svg xmlns="http://www.w3.org/2000/svg">
<metadata>
Created by FontForge 20120731 at Tue Mar 14 14:44:35 2017
 By admin
</metadata>
<defs>
<font id="iconfont" horiz-adv-x="1024" >
  <font-face 
    font-family="iconfont"
    font-weight="500"
    font-stretch="normal"
    units-per-em="1024"
    panose-1="2 0 6 3 0 0 0 0 0 0"
    ascent="896"
    descent="-128"
    x-height="792"
    bbox="0 -129.5 3242.04 896.5"
    underline-thickness="0"
    underline-position="0"
    unicode-range="U+0078-0301"
  />
<missing-glyph 
 />
    <glyph glyph-name=".notdef" 
 />
    <glyph glyph-name=".notdef" 
 />
    <glyph glyph-name=".null" horiz-adv-x="0" 
 />
    <glyph glyph-name="nonmarkingreturn" horiz-adv-x="341" 
 />
    <glyph glyph-name="x" unicode="x" horiz-adv-x="1001" 
d="M281 543q-27 -1 -53 -1h-83q-18 0 -36.5 -6t-32.5 -18.5t-23 -32t-9 -45.5v-76h912v41q0 16 -0.5 30t-0.5 18q0 13 -5 29t-17 29.5t-31.5 22.5t-49.5 9h-133v-97h-438v97zM955 310v-52q0 -23 0.5 -52t0.5 -58t-10.5 -47.5t-26 -30t-33 -16t-31.5 -4.5q-14 -1 -29.5 -0.5
t-29.5 0.5h-32l-45 128h-439l-44 -128h-29h-34q-20 0 -45 1q-25 0 -41 9.5t-25.5 23t-13.5 29.5t-4 30v167h911zM163 247q-12 0 -21 -8.5t-9 -21.5t9 -21.5t21 -8.5q13 0 22 8.5t9 21.5t-9 21.5t-22 8.5zM316 123q-8 -26 -14 -48q-5 -19 -10.5 -37t-7.5 -25t-3 -15t1 -14.5
t9.5 -10.5t21.5 -4h37h67h81h80h64h36q23 0 34 12t2 38q-5 13 -9.5 30.5t-9.5 34.5q-5 19 -11 39h-368zM336 498v228q0 11 2.5 23t10 21.5t20.5 15.5t34 6h188q31 0 51.5 -14.5t20.5 -52.5v-227h-327z" />
    <glyph glyph-name="jieri" unicode="&#x215;" 
d="M596 612q0 -53 -19 -100.5t-50.5 -83t-73.5 -56t-88.5 -20.5t-87.5 19.5t-73 55t-51 84.5t-19 107q0 47 18.5 88.5t49 72.5t72 50t88 19t88.5 -19.5t74.5 -52.5t52 -75.5t19.5 -88.5zM324 281l-1 -363l37 48l39 -48v363h-75zM568 799q22 -26 39 -55q15 -25 27 -58t11 -69
q-1 -62 -12.5 -104t-26.5 -68q-17 -30 -38 -48q30 3 60 10q25 5 55 13.5t56 21.5q24 13 45 33t36 47.5t21 62.5t0 77q-6 43 -36 76.5t-71 53.5t-85.5 23t-80.5 -16zM569 340l-1 -346l36 46l38 -46v346h-73z" />
    <glyph glyph-name="xiangxia" unicode="&#x101;" 
d="M879 645q29 0 47.5 -11t24.5 -29.5t0 -41.5t-26 -46q-83 -92 -160 -180t-149 -165q-19 -20 -45 -31.5t-54 -12t-53.5 8.5t-42.5 29q-40 44 -83 90l-88 92q-43 46 -85.5 90.5t-79.5 86.5q-17 20 -22.5 41t1 38.5t23.5 28.5t45 11q36 0 99 0.5t138 0.5h153h151h126h80z" />
    <glyph glyph-name="xiangzuo" unicode="&#x231;" 
d="M766 771v-82v-129v-157v-159q0 -77 0.5 -141.5t0.5 -100.5q0 -25 -12 -41t-29.5 -22t-39 0t-40.5 24q-38 39 -82 81.5t-90.5 85.5t-94 86t-91.5 83q-20 17 -29.5 43t-8.5 53.5t11.5 54t32.5 45.5q40 34 79.5 69.5t81 73t87 78.5t96.5 87q22 20 45.5 27t41.5 2t29.5 -20.5
t11.5 -40.5z" />
    <glyph glyph-name="dazhuanpan" unicode="&#x241;" horiz-adv-x="1000" 
d="M831.5 728.5q-63.5 63.5 -145 97.5t-171.5 34t-171.5 -34t-145 -97.5t-97.5 -145t-34 -171t34 -171.5t97.5 -145.5t145 -97t171.5 -33.5t171.5 33.5t145 97t97.5 145.5t34 171.5t-34 171t-97.5 145zM794 134v0l-176 175q-27 -27 -65 -38l64 -239q-50 -14 -102 -14
t-102 14l64 239q-37 11 -65 38l-175 -175q-75 74 -102 176l239 65q-10 37 0 75l-239 64q27 102 102 177v0l175 -176q28 28 65 38l-64 240q50 13 102 13t102 -13l-64 -240q38 -10 65 -38l176 176v0q75 -75 102 -177l-240 -64q10 -38 0 -75l240 -65q-27 -101 -102 -176z
M539 533l-24 116l-22 -115q-38 -7 -65 -34q-36 -37 -36 -88t36 -87t87 -36t87.5 36t36.5 87t-37 88q-26 26 -63 33z" />
    <glyph glyph-name="rili" unicode="&#x160;" horiz-adv-x="1000" 
d="M458 188h110v111h-110v-111zM292 354h111v110h-111v-110zM292 188h111v111h-111v-111zM844 850h-110v-55q0 -23 -16.5 -39t-39 -16t-39 16t-16.5 39v55h-220v-55q0 -23 -16.5 -39t-39 -16t-39 16t-16.5 39v55h-110q-46 0 -78 -32t-32 -78v-662q0 -46 32 -78t78 -32h662
q46 0 78 32t32 78v662q0 46 -32 78t-78 32zM844 133q0 -23 -16 -39t-39 -16h-552q-23 0 -39 16t-16 39v386q0 23 16 39t39 16h552q23 0 39 -16t16 -39v-386zM623 354h111v110h-111v-110zM458 354h110v110h-110v-110zM623 188h111v111h-111v-111z" />
    <glyph glyph-name="dantou" unicode="&#x243;" 
d="M514.5 -64q-75.5 0 -150.5 26.5t-135 72.5t-97 115t-37 147q0 64 24 138.5t66 144t94 127.5t114.5 92.5t121 34.5t120.5 -34.5t114.5 -92.5t94.5 -127.5t66 -144t24 -138.5q0 -78 -37 -147t-97 -115t-135 -72.5t-150.5 -26.5zM335 565q-62 0 -106 -44t-44 -106t44 -106
t106 -44t105.5 44t43.5 106t-43.5 106t-105.5 44zM454 175v-60q0 -24 18 -41.5t42.5 -17.5t42 17.5t17.5 41.5v60h-120zM694 565q-62 0 -106 -44t-44 -106t44 -106t106 -44t106 44t44 106t-44 106t-106 44zM664 355q-37 0 -63.5 26.5t-26.5 63.5t26.5 63.5t63.5 26.5
t63.5 -26.5t26.5 -63.5t-26.5 -63.5t-63.5 -26.5zM364.5 295q-37.5 0 -63.5 26.5t-26 63.5t26 63.5t63.5 26.5t63.5 -26.5t26 -63.5t-26 -63.5t-63.5 -26.5z" />
    <glyph glyph-name="user4add" unicode="&#x175;" 
d="M896 0h-64v-64q0 -27 -18.5 -45.5t-45.5 -18.5t-45.5 18.5t-18.5 45.5v64h-64q-27 0 -45.5 18.5t-18.5 45.5t18.5 45.5t45.5 18.5h64v64q0 27 18.5 45.5t45.5 18.5t45.5 -18.5t18.5 -45.5v-64h64q27 0 45.5 -18.5t18.5 -45.5t-18.5 -45.5t-45.5 -18.5zM585 247
q-60 -18 -98.5 -68.5t-38.5 -114.5q0 -62 35.5 -111t92.5 -69v-12h-448q-27 0 -45.5 18.5t-18.5 45.5q0 92 74.5 174.5t175.5 120.5q-56 34 -89 91.5t-33 125.5v64q0 106 75 181t181 75t181 -75t75 -181v-64q0 -39 -16 -84q-79 -38 -103 -117z" />
    <glyph glyph-name="user4remove" unicode="&#x176;" 
d="M896 0h-256q-27 0 -45.5 18.5t-18.5 45.5t18.5 45.5t45.5 18.5h256q27 0 45.5 -18.5t18.5 -45.5t-18.5 -45.5t-45.5 -18.5zM448 64q0 -80 56 -136t136 -56h-512q-27 0 -45.5 18.5t-18.5 45.5q0 92 74.5 174.5t175.5 120.5q-56 34 -89 91.5t-33 125.5v64q0 106 75 181
t181 75t181 -75t75 -181v-64q0 -58 -25 -108.5t-69 -86.5q-70 -11 -116 -64.5t-46 -124.5z" />
    <glyph glyph-name="jiangbei" unicode="&#x152;" 
d="M660 49q-2 10 -10.5 16.5t-19.5 6.5h-66v113q-26 -4 -51.5 -4t-51.5 4v-113h-67q-10 0 -18.5 -6.5t-11.5 -16.5l-23 -85q-4 -15 5 -27.5t25 -12.5h283v0q13 0 22 9t9 22q0 7 -2 13zM830 722q-13 3 -26 3h-12v83q0 13 -8.5 21.5t-21.5 8.5h-500q-12 0 -20.5 -8.5
t-8.5 -21.5v-83h-12q-14 0 -26 -3q-52 -14 -76 -70.5t-6 -123.5q15 -58 55 -94.5t86 -36.5q3 0 9 1q3 -7 7 -15q1 -1 1 -2q6 -11 12 -20q1 -2 2 -2q6 -11 13 -19l1 -1q14 -19 32 -36h0.5h0.5q8 -8 18 -16h0.5h0.5q39 -31 86 -45v0l24 -6v0v0q12 -2 25 -4h0.5h0.5
q13 -1 25.5 -1t25.5 1h0.5h0.5q12 1 25 4v0v0l24 6v0q46 14 86 45v0h1l18 16v0q18 17 33 36l1 1q6 9 13 19q1 2 2 2q6 10 11 20l0.5 1t1.5 1q3 8 7 15q6 -1 9 -1q46 0 85.5 36.5t55.5 94.5q17 67 -7 123.5t-75 70.5zM161 541q-12 46 2 85t45 47q6 2 13 2q5 0 12 -1v-140
q0 -11 1 -25v-3q1 -11 3 -24q1 -3 1 -4q2 -12 5 -23l0.5 -3t0.5 -4q-26 5 -49.5 30.5t-33.5 62.5zM665 598l-83 -62l30 -99q2 -7 -3 -11q-3 -2 -6 -2t-5 2l-86 59l-85 -59q-6 -4 -11.5 0t-3.5 11l31 99l-83 62q-6 4 -4 10.5t9 6.5l104 2l34 98q3 6 9.5 6t8.5 -6l34 -98
l105 -2q6 0 8 -6.5t-3 -10.5zM863 541q-9 -37 -32.5 -62.5t-50.5 -30.5q1 2 1 4q1 2 1 3q3 11 5 23q0 2 1 4l2 24q1 0 1 3q1 14 1 25v140q6 1 12 1q7 0 13 -2q31 -8 44.5 -47t1.5 -85z" />
    <glyph glyph-name="zuanshi" unicode="&#x177;" 
d="M966 566l-164 244q-10 14 -27 14h-525q-17 0 -27 -14l-164 -244q-13 -19 1 -37l427 -557q10 -12 25.5 -12t25.5 12l427 557q14 18 1 37zM640 529l-127 -465l-128 465h255zM395 567l118 188l117 -188h-235zM555 760h185l-78 -171zM363 589l-78 171h185zM459 114l-318 415
h205zM679 529h205l-318 -415zM888 567h-193l77 172zM253 739l78 -172h-194z" />
    <glyph glyph-name="people4" unicode="&#x133;" 
d="M900 202q-25 53 -107 72q-53 11 -81 19.5t-39 17t-11 15t7 19.5q59 104 69 193.5t-29 152.5q-27 44 -74 68.5t-106 24.5t-106 -24.5t-74 -68.5q-39 -63 -29 -152.5t68 -193.5q8 -13 8 -19.5t-11 -15t-39 -17t-81 -19.5q-82 -19 -107 -72q-4 -8 -6.5 -15t-4 -18t-2.5 -18
t-1.5 -23.5t-0.5 -24.5v-32v-36h75v73q0 51 10.5 68t53.5 26q34 8 48.5 11.5t42 12t41 16t28.5 20t22 28.5q19 40 -9 90q-48 85 -59 156.5t17 117.5q36 57 116 57t115 -57q28 -46 17.5 -117.5t-58.5 -156.5q-28 -50 -9 -90q7 -16 22 -28.5t28.5 -20t41 -16t42 -12
t48.5 -11.5q43 -9 53.5 -26t10.5 -68v-73h75v36v32t-0.5 24.5t-1.5 23.5t-2.5 18t-4 18t-6.5 15z" />
    <glyph glyph-name="yewanqingzhuanduoyun" unicode="&#x210;" 
d="M789 190q14 -26 14 -55q0 -52 -37 -88.5t-88 -36.5h-424q-55 2 -94 41.5t-39 93.5q0 56 39.5 95.5t94.5 39.5q8 0 15 -1l21 -2l8 20q20 46 60 78l-36 42h-2q-41 -34 -65 -80h-1q-79 0 -135 -56t-56 -136q0 -76 55 -132t132 -59h427q75 0 128 53t53 128q0 45 -22 86z
M654.5 216q-126.5 0 -216 89.5t-89.5 215.5q0 113 72.5 198t183.5 103l64 11l-37 -54q-33 -46 -33 -103q0 -76 53.5 -129t128.5 -53q77 0 131 56l45 47l3 -68v-8q0 -126 -89.5 -215.5t-216 -89.5zM557 752q-69 -29 -111 -91.5t-42 -139.5q0 -103 73.5 -176.5t177.5 -73.5
q90 0 158.5 57t86.5 143q-55 -32 -119 -32q-98 0 -167.5 69.5t-69.5 167.5q0 39 13 76z" />
    <glyph glyph-name="check" unicode="&#x102;" 
d="M888 598q-10 9 -23 8.5t-22 -10.5l-427 -454l-233 230q-10 9 -23 9t-22.5 -9.5t-9.5 -23t10 -22.5l256 -253h1v0q1 -1 7 -4q0 -1 1 -1.5t2 -1.5q6 -2 12 -2t12 3q1 0 2 1t2 1q5 3 7 5v0v0l449 479q9 9 9 22.5t-10 22.5z" />
    <glyph glyph-name="close" unicode="&#x103;" 
d="M557 383l266 264q9 9 9 22t-9.5 22.5t-22.5 9.5t-23 -9l-265 -264l-263 264q-9 9 -22.5 9t-23 -9t-9.5 -22.5t10 -22.5l263 -264l-265 -264q-10 -9 -10 -22.5t9.5 -22.5t22.5 -9t23 9l265 264l265 -267q10 -9 23 -9t22.5 9.5t9.5 22.5t-9 23z" />
    <glyph glyph-name="edit" unicode="&#x104;" 
d="M800 -64h-576q-40 0 -68 28t-28 68v640q0 40 28 68t68 28h448q13 0 22.5 -9.5t9.5 -22.5t-9.5 -22.5t-22.5 -9.5h-448q-13 0 -22.5 -9.5t-9.5 -22.5v-640q0 -13 9.5 -22.5t22.5 -9.5h576q13 0 22.5 9.5t9.5 22.5v512q0 13 9.5 22.5t22.5 9.5t22.5 -9.5t9.5 -22.5v-512
q0 -40 -28 -68t-68 -28zM612 448q-13 0 -22.5 9.5t-9.5 22.5t9 23l318 318q10 9 23 9t22.5 -9.5t9.5 -22.5t-9 -23l-318 -318q-10 -9 -23 -9zM480 448h-192q-13 0 -22.5 9.5t-9.5 22.5t9.5 22.5t22.5 9.5h192q13 0 22.5 -9.5t9.5 -22.5t-9.5 -22.5t-22.5 -9.5zM672 256h-384
q-13 0 -22.5 9.5t-9.5 22.5t9.5 22.5t22.5 9.5h384q13 0 22.5 -9.5t9.5 -22.5t-9.5 -22.5t-22.5 -9.5z" />
    <glyph glyph-name="favor" unicode="&#x105;" 
d="M767 -64q-8 0 -15 4l-242 134l-242 -133q-17 -10 -33.5 1.5t-13.5 31.5l47 285l-196 202q-14 14 -8 32.5t25 21.5l156 26q13 3 23.5 -5t13 -21t-5.5 -23.5t-21 -13.5l-95 -16l166 -170q11 -12 8 -28l-39 -235l200 110q15 8 31 -1l199 -110l-38 236q-3 16 9 27l164 169
l-225 34q-17 3 -24 18l-100 213l-100 -212q-5 -12 -17.5 -16.5t-24.5 1t-16.5 18t0.5 24.5l130 274q8 18 29 18v0q20 0 29 -18l120 -259l271 -42q19 -3 25 -21.5t-7 -32.5l-197 -201l46 -285q3 -20 -14 -31q-8 -6 -18 -6z" />
    <glyph glyph-name="loading" unicode="&#x238;" 
d="M923 448zM512 -67q-148 0 -268 89q-71 54 -116.5 130t-58 165t9.5 174.5t75 157.5q73 98 183 144.5t228.5 32.5t216.5 -87q62 -46 105 -111t61 -141q3 -12 -4 -23.5t-19.5 -14.5t-24 3.5t-14.5 19.5q-33 134 -143 216q-83 63 -184.5 74.5t-196 -28.5t-156.5 -123
q-46 -62 -65 -135.5t-8 -149.5t49.5 -141t100.5 -112q83 -62 185 -74t196 28t156 124q51 67 68 147q3 13 14 20.5t24 4.5t20 -14t5 -24q-21 -95 -79 -173q-54 -72 -130 -117t-165 -58q-33 -4 -65 -4z" />
    <glyph glyph-name="locationfill" unicode="&#x106;" 
d="M512 832q-146 0 -249 -103t-103 -249q0 -53 34 -127.5t76.5 -136.5t98 -130.5t80 -95.5t40.5 -44q9 -10 23 -10h1q14 0 23 11l109 125q219 268 219 408q0 146 -103 249t-249 103zM512 320q-66 0 -113 47t-47 113t47 113t113 47t113 -47t47 -113t-47 -113t-113 -47z" />
    <glyph glyph-name="location" unicode="&#x107;" 
d="M512 288q-79 0 -135.5 56.5t-56.5 135.5t56.5 135.5t135.5 56.5t135.5 -56.5t56.5 -135.5t-56.5 -135.5t-135.5 -56.5zM512 608q-53 0 -90.5 -37.5t-37.5 -90.5t37.5 -90.5t90.5 -37.5t90.5 37.5t37.5 90.5t-37.5 90.5t-90.5 37.5zM512 -64q-13 0 -22 9q-10 9 -10 22.5
t9 22.5q39 41 86 97.5t100.5 129.5t89 144.5t35.5 118.5q0 119 -84.5 203.5t-203.5 84.5t-203.5 -84.5t-84.5 -203.5q0 -57 52.5 -151.5t151.5 -215.5q9 -11 7.5 -24t-12 -21.5t-23.5 -7t-21 11.5q-219 268 -219 408q0 146 103 249t249 103t249 -103t103 -249
q0 -53 -34 -127.5t-76.5 -136.5t-98 -130.5t-80 -95.5t-40.5 -44q-9 -10 -23 -10z" />
    <glyph glyph-name="phone" unicode="&#x108;" 
d="M369 66v-1q-4 0 -8.5 -0.5t-5.5 -0.5h-3q-52 0 -89 36.5t-38 88.5q-2 53 34 91q37 39 89 40h2h2q40 0 74 -24q46 -16 92 45t19 95q-9 7 -18 17q-2 1 -3 3q-31 35 -33 80q-1 53 35 91t89 40h1.5h2.5q44 0 78.5 -28t44.5 -71q6 -18 8 -43t-1.5 -68t-28 -100.5t-68.5 -116.5
q-41 -55 -85 -93t-81.5 -54t-62.5 -21.5t-46 -5.5zM365 130q9 0 20.5 1t36.5 9t49 22.5t57.5 44.5t64.5 71q38 52 59.5 101.5t24 85.5t1 54.5t-5.5 31.5q-5 23 -22.5 37.5t-39.5 14.5q-27 -1 -45 -20t-18 -45q1 -23 17 -40v-1q6 -6 12 -10q4 -3 6 -6q10 -10 16.5 -24
t11 -36.5t-5.5 -53.5t-35 -64q-55 -74 -124 -74q-24 0 -47 9q-4 2 -8 5q-17 14 -38 14q-28 -1 -46 -20t-17 -45q0 -26 18.5 -44t44.5 -18v0q1 1 3 1q6 0 10 -1zM512 -67q-91 0 -174 35q-12 5 -17 17t0 24.5t17.5 17.5t24.5 0q71 -30 149 -30q104 0 192.5 51.5t140 140
t51.5 192.5t-51.5 192.5t-140 140t-192.5 51.5t-192.5 -51.5t-140 -140t-51.5 -192.5q0 -111 59 -204q7 -11 4 -24t-14.5 -20t-24.5 -4t-20 14q-68 109 -68 238q0 91 35.5 174t95.5 143t143 95.5t174 35.5t174 -35.5t143 -95.5t95.5 -143t35.5 -174t-35.5 -174t-95.5 -143
t-143 -95.5t-174 -35.5z" />
    <glyph glyph-name="search" unicode="&#x110;" 
d="M954 -12l-153 163q96 116 96 265q0 113 -56 209t-151.5 151.5t-208.5 55.5t-209 -55.5t-151.5 -151.5t-55.5 -209t55.5 -208.5t151.5 -151.5t209 -56q90 0 172 37q12 6 16.5 18.5t-1 24.5t-18 16.5t-24.5 -0.5q-69 -32 -145 -32q-96 0 -177 47.5t-128 128.5t-47 176.5
t47 176.5t128 128t176.5 47t176.5 -47t128.5 -128t47.5 -177q0 -141 -98 -244q-9 -9 -9 -22.5t10 -22.5l1 -1t1.5 -1t1.5 -1.5t1 -2.5l166 -177q9 -10 23 -10q13 0 22 9q10 9 10.5 22t-8.5 23z" />
    <glyph glyph-name="taxi" unicode="&#x113;" 
d="M224 255.5q0 26.5 18.5 45t45 18.5t45.5 -18.5t19 -45t-19 -45t-45.5 -18.5t-45 18.5t-18.5 45zM673 255.5q0 26.5 18.5 45t45 18.5t45.5 -18.5t19 -45t-19 -45t-45.5 -18.5t-45 18.5t-18.5 45zM705 384h-384q-13 0 -22.5 9.5t-9.5 22.5t9.5 22.5t22.5 9.5h384
q13 0 22.5 -9.5t9.5 -22.5t-9.5 -22.5t-22.5 -9.5zM896 444v5q0 3 -1 7l-32 159q0 4 -2 7q-16 34 -53 58t-72 24h-35l-1 6l-19 62q-6 25 -29.5 42.5t-52.5 17.5h-174q-29 0 -52 -17t-29 -41l-20 -63v-5v-2h-36q-38 0 -74.5 -22t-51.5 -62q-1 -3 -1 -5l-32 -160q-1 -3 -1 -7
v-4q-28 -11 -46 -35.5t-18 -55.5v-195q0 -39 28 -66.5t68 -27.5h32v-2q0 -53 37.5 -90.5t90.5 -37.5t90.5 37.5t37.5 90.5v2h128v-2q0 -53 37.5 -90.5t90.5 -37.5t90.5 37.5t37.5 90.5v2h32q40 0 68 27t28 67v195q0 31 -18 56t-46 35zM406 758q1 3 6.5 6.5t12.5 3.5h174
q8 0 13.5 -4t6.5 -9l16 -51h-246zM896 158q0 -13 -9 -21.5t-23 -8.5h-64q-13 0 -22.5 -9.5t-9.5 -22.5v-34q0 -26 -19 -45t-45 -19t-45 19t-19 45v34q0 13 -9.5 22.5t-22.5 9.5h-192q-13 0 -22.5 -9.5t-9.5 -22.5v-34q0 -26 -19 -45t-45 -19t-45 19t-19 45v34
q0 13 -9.5 22.5t-22.5 9.5h-64q-14 0 -23 8.5t-9 21.5v195q0 13 9.5 22.5t23 9.5t23 9.5t9.5 23.5l-1 28l31 153q8 19 26.5 30t38.5 11h448q16 0 36 -13t30 -29l30 -152v-29q0 -13 9.5 -22.5t22.5 -9.5t22.5 -9t9.5 -23v-195z" />
    <glyph glyph-name="time" unicode="&#x114;" 
d="M512 832q-185 0 -316.5 -131.5t-131.5 -316.5t131.5 -316.5t316.5 -131.5t316.5 131.5t131.5 316.5t-131.5 316.5t-316.5 131.5zM512 0q-104 0 -192.5 51.5t-140 140t-51.5 192.5t51.5 192.5t140 140t192.5 51.5t192.5 -51.5t140 -140t51.5 -192.5t-51.5 -192.5
t-140 -140t-192.5 -51.5zM672 384h-160v224q0 13 -9.5 22.5t-22.5 9.5t-22.5 -9.5t-9.5 -22.5v-256q0 -13 9.5 -22.5t22.5 -9.5h192q13 0 22.5 9.5t9.5 22.5t-9.5 22.5t-22.5 9.5z" />
    <glyph glyph-name="unfold" unicode="&#x116;" 
d="M890.5 565q-9.5 9 -23 9t-22.5 -9l-328 -331l-332 329q-10 10 -23 10t-22.5 -9.5t-9.5 -23t10 -22.5l353 -350l1 -0.5l1 -0.5v-1q10 -9 23 -9t22 9l350 354q10 9 10 22.5t-9.5 22.5z" />
    <glyph glyph-name="warnfill" unicode="&#x138;" 
d="M943 127l-341 609q-35 63 -90.5 63t-90.5 -63l-340 -609q-34 -62 -6 -111q29 -48 100 -48h674q71 0 99.5 48.5t-5.5 110.5zM480 576q0 13 9.5 22.5t22.5 9.5t22.5 -9.5t9.5 -22.5v-288q0 -13 -9.5 -22.5t-22.5 -9.5t-22.5 9.5t-9.5 22.5v288zM512 64q-20 0 -34 14t-14 34
t14 34t34 14t34 -14t14 -34t-14 -34t-34 -14z" />
    <glyph glyph-name="warn" unicode="&#x136;" 
d="M849 -33h-674q-71 0 -99.5 49t5.5 111l340 609q35 63 90.5 63t90.5 -63l341 -609q34 -63 5.5 -111.5t-99.5 -48.5zM512 735q-18 0 -35 -30l-340 -610q-17 -30 -7 -47t45 -17h674q35 0 45 17t-7 47l-341 610q-16 30 -34 30zM512 256q-13 0 -22.5 9.5t-9.5 22.5v288
q0 13 9.5 22.5t22.5 9.5t22.5 -9.5t9.5 -22.5v-288q0 -13 -9.5 -22.5t-22.5 -9.5zM512 144zM464 144q0 20 14 34t34 14t34 -14t14 -34t-14 -34t-34 -14t-34 14t-14 34z" />
    <glyph glyph-name="bofang" unicode="&#x198;" 
d="M512 896q-104 0 -199 -40.5t-163.5 -109t-109 -163.5t-40.5 -199t40.5 -199t109 -163.5t163.5 -109t199 -40.5t199 40.5t163.5 109t109 163.5t40.5 199t-40.5 199t-109 163.5t-163.5 109t-199 40.5zM512 -89q-96 0 -183.5 37.5t-151 101t-101 151t-37.5 183.5t37.5 183.5
t101 151t151 101t183.5 37.5t183.5 -37.5t151 -101t101 -151t37.5 -183.5t-37.5 -183.5t-101 -151t-151 -101t-183.5 -37.5zM448 594q-6 7 -15 7q-6 0 -11 -4q-2 -1 -3 -2q-7 -8 -5 -18v-386q-2 -11 5 -18q6 -6 14 -6t14 6l256 196q6 6 6 15q0 8 -6 14zM453 227v313
l204 -156z" />
    <glyph glyph-name="camera" unicode="&#x117;" 
d="M512 160q-79 0 -135.5 56.5t-56.5 135.5t56.5 135.5t135.5 56.5t135.5 -56.5t56.5 -135.5t-56.5 -135.5t-135.5 -56.5zM512 480q-53 0 -90.5 -37.5t-37.5 -90.5t37.5 -90.5t90.5 -37.5t90.5 37.5t37.5 90.5t-37.5 90.5t-90.5 37.5zM864 0h-704q-40 0 -68 28t-28 68v512
q0 40 28 68t68 28h96q13 0 22.5 -9.5t9.5 -22.5t-9.5 -22.5t-22.5 -9.5h-96q-13 0 -22.5 -9.5t-9.5 -22.5v-512q0 -13 9.5 -22.5t22.5 -9.5h704q13 0 22.5 9.5t9.5 22.5v512q0 13 -9.5 22.5t-22.5 9.5h-352q-13 0 -22.5 9.5t-9.5 22.5t9.5 22.5t22.5 9.5h352q40 0 68 -28
t28 -68v-512q0 -40 -28 -68t-68 -28zM816 560zM768 560q0 20 14 34t34 14t34 -14t14 -34t-14 -34t-34 -14t-34 14t-14 34zM480 768q0 -13 -9.5 -22.5t-22.5 -9.5h-128q-13 0 -22.5 9.5t-9.5 22.5v0q0 13 9.5 22.5t22.5 9.5h128q13 0 22.5 -9.5t9.5 -22.5v0z" />
    <glyph glyph-name="commentfill" unicode="&#x131;" 
d="M832 768h-640q-40 0 -68 -28t-28 -68v-512q0 -40 28 -68t68 -28h211l86 -87q10 -9 23 -9t23 9l86 87h211q40 0 68 28t28 68v512q0 40 -28 68t-68 28zM336 384q-20 0 -34 14t-14 34t14 34t34 14t34 -14t14 -34t-14 -34t-34 -14zM528 384q-20 0 -34 14t-14 34t14 34t34 14
t34 -14t14 -34t-14 -34t-34 -14zM720 384q-20 0 -34 14t-14 34t14 34t34 14t34 -14t14 -34t-14 -34t-34 -14z" />
    <glyph glyph-name="comment" unicode="&#x118;" 
d="M512 -32q-13 0 -23 9l-96 96q-9 10 -9 23t9.5 22.5t22.5 9.5t23 -9l73 -74l73 74q10 9 23 9h224q13 0 22.5 9.5t9.5 22.5v512q0 13 -9.5 22.5t-22.5 9.5h-640q-13 0 -22.5 -9.5t-9.5 -22.5v-512q0 -13 9.5 -22.5t22.5 -9.5h96q13 0 22.5 -9.5t9.5 -22.5t-9.5 -22.5
t-22.5 -9.5h-96q-40 0 -68 28t-28 68v512q0 40 28 68t68 28h640q40 0 68 -28t28 -68v-512q0 -40 -28 -68t-68 -28h-211l-86 -87q-10 -9 -23 -9zM336 384q-20 0 -34 14t-14 34t14 34t34 14t34 -14t14 -34t-14 -34t-34 -14zM528 384q-20 0 -34 14t-14 34t14 34t34 14t34 -14
t14 -34t-14 -34t-34 -14zM720 384q-20 0 -34 14t-14 34t14 34t34 14t34 -14t14 -34t-14 -34t-34 -14z" />
    <glyph glyph-name="likefill" unicode="&#x132;" 
d="M736 768q-102 0 -176 -70q-6 -5 -48 -48l-47 47q-74 71 -177 71q-106 0 -181 -75t-75 -181q0 -100 76 -182l317 -321q42 -41 87 -41t87 42l316 320l3 2q25 31 37.5 49.5t24.5 54t12 76.5q0 106 -75 181t-181 75z" />
    <glyph glyph-name="like" unicode="&#x119;" 
d="M512 -32q-45 0 -87 41l-319 323q-25 31 -37.5 49.5t-24.5 54t-12 76.5q0 106 75 181t181 75q81 0 147 -47q11 -7 13.5 -20t-5.5 -24t-21 -13.5t-24 5.5q-49 35 -110 35q-79 0 -135.5 -56.5t-56.5 -135.5q0 -43 13 -70t46 -69l316 -319q22 -22 41 -22q18 0 41 23l317 320
q58 62 58 137q0 79 -56.5 135.5t-135.5 56.5q-75 0 -130 -50l-134 -134q-9 -10 -22 -10t-22.5 9.5t-9.5 22.5t9 23l135 135q75 68 174 68q106 0 181 -75t75 -181q0 -100 -76 -182l-317 -320q-42 -42 -87 -42z" />
    <glyph glyph-name="tag" unicode="&#x123;" 
d="M704 480q-40 0 -68 28t-28 68t28 68t68 28t68 -28t28 -68t-28 -68t-68 -28zM704 608q-13 0 -22.5 -9.5t-9.5 -22.5t9.5 -22.5t22.5 -9.5t22.5 9.5t9.5 22.5t-9.5 22.5t-22.5 9.5zM896 608zM467 -32q-51 0 -83 32l-256 256q-33 37 -31.5 83.5t31.5 76.5l288 288
q10 10 24.5 10.5t24.5 -8.5q24 -25 -5 -54l-279 -279q-21 -23 -20.5 -38.5t21.5 -36.5l249 -249q17 -17 33 -17t35 19l333 333q19 19 25.5 39t6.5 57v128q0 83 -22.5 105.5t-105.5 22.5h-192q-13 0 -22.5 9.5t-9.5 22.5t9.5 22.5t22.5 9.5h192q109 0 150.5 -41.5
t41.5 -150.5v-128q0 -57 -12 -88.5t-52 -71.5l-320 -320q-32 -32 -77 -32z" />
    <glyph glyph-name="evaluate" unicode="&#x147;" 
d="M406 -36q-15 0 -24 11q-24 26 -55.5 45t-57.5 28t-53.5 14t-38 6t-16.5 1v0q-13 0 -22.5 9t-9.5 22.5t9 23t22 9.5q6 0 21 -1t47 -7t64 -17t70 -34.5t67 -56.5q9 -10 8.5 -23t-10.5 -22q-9 -8 -21 -8zM620 -36q-12 0 -22 8q-9 9 -9.5 22.5t8.5 23.5q30 32 68.5 56
t70 34.5t63.5 16.5t46 7t21 1q13 0 22 -9.5t9 -23t-9.5 -22.5t-22.5 -9v0v0q-6 0 -16 -0.5t-37.5 -6t-53.5 -14.5t-58 -28.5t-56 -45.5q-10 -10 -24 -10zM564 127h-102q-5 0 -9 1q-81 11 -148 56.5t-112 121.5q-51 87 -62 191t23 186q8 19 29 19h10q91 0 169 -34
q57 103 128 155q4 3 8 5v0q16 7 31 -2l4 -4q71 -51 127 -156q79 36 173 36h10q21 0 29 -19q34 -82 23 -186t-62 -192q-45 -75 -112 -121t-148 -56q-5 -1 -9 -1zM468 191h90h2q140 16 217 147q41 69 52.5 151.5t-9.5 148.5q-88 -3 -159 -42q-12 -7 -25 -3t-19 17
q-49 99 -106 148q-58 -50 -106 -146q-6 -13 -19 -17t-25 3q-70 38 -155 40q-21 -66 -9.5 -148.5t52.5 -151.5q77 -131 217 -147h2zM513 -64q-13 0 -22.5 9.5t-9.5 22.5v191q0 13 9.5 22.5t22.5 9.5t22.5 -9.5t9.5 -22.5v-191q0 -13 -9.5 -22.5t-22.5 -9.5z" />
    <glyph glyph-name="pay" unicode="&#x124;" 
d="M799 -4h-639q-40 0 -68 28t-28 68v578q0 40 28 68t68 28h642q40 0 68 -28t28 -68v-94q0 -13 -9 -22.5t-22.5 -9.5t-23 9.5t-9.5 22.5v94q0 13 -9 22.5t-23 9.5h-642q-13 0 -22.5 -9.5t-9.5 -22.5v-578q0 -14 9.5 -23t22.5 -9h639q14 0 23 9t9 23v98q0 14 9.5 23t23 9
t22.5 -9t9 -23v-98q0 -40 -28 -68t-68 -28zM661 382zM630 382q0 13 9.5 22t22 9t22 -9t9.5 -22t-9.5 -22t-22 -9t-22 9t-9.5 22zM896 256h-320q-26 0 -45 19t-19 45v128q0 26 19 45t45 19h320q26 0 45 -19t19 -45v-128q0 -26 -19 -45t-45 -19zM576 448v-128h320v128h-320z
" />
    <glyph glyph-name="shop" unicode="&#x260;" 
d="M953 543v2q-1 3 -2 5l-75 187q-10 28 -35.5 45t-58.5 17h-527q-33 0 -57 -16t-34 -45l-80 -190q-1 -2 -1 -5q-9 -27 -9 -54q0 -49 25 -91t68 -65v0v0v0v0q36 -19 83 -19q82 0 134 63q52 -62 134 -63q81 1 133 63q52 -62 135 -62q48 0 84 20q42 23 66.5 64.5t24.5 89.5
q0 28 -8 54zM839 391q-22 -12 -54 -12q-29 0 -54 14t-41 39q-4 8 -8 13q-12 13 -31 13q-20 0 -31 -13q-4 -5 -8 -13q-16 -25 -40.5 -39t-53.5 -15q-29 1 -54 15t-41 39q-4 8 -7 12q-11 13 -31.5 13t-30.5 -12q-5 -5 -9 -14q-16 -25 -41 -39t-54 -14q-31 0 -53 12v0v0
q-27 14 -43 40.5t-16 57.5q0 19 6 37q0 1 1 3l79 188q7 19 31 19h527q27 -2 34 -21l74 -185q1 -2 1 -3q6 -18 6 -37q0 -31 -15.5 -57.5t-42.5 -40.5zM863 288q-13 0 -22.5 -9.5t-9.5 -22.5v-175q0 -7 -5 -12.5t-13 -5.5h-602q-7 0 -12.5 5t-5.5 13v171q0 14 -9.5 23t-22.5 9
v0q-13 0 -22.5 -9t-9.5 -23v-171q0 -34 24 -58t58 -24h602q34 0 58 24.5t24 57.5v175q0 13 -9.5 22.5t-22.5 9.5zM768 512h-512q-13 0 -22.5 9.5t-9.5 22.5t9.5 22.5t22.5 9.5h512q13 0 22.5 -9.5t9.5 -22.5t-9.5 -22.5t-22.5 -9.5z" />
    <glyph glyph-name="more" unicode="&#x125;" 
d="M224 288q-40 0 -68 28t-28 68t28 68t68 28t68 -28t28 -68t-28 -68t-68 -28zM512 288q-40 0 -68 28t-28 68t28 68t68 28t68 -28t28 -68t-28 -68t-68 -28zM800 288q-40 0 -68 28t-28 68t28 68t68 28t68 -28t28 -68t-28 -68t-68 -28z" />
    <glyph glyph-name="my" unicode="&#x135;" 
d="M512 832q-185 0 -316.5 -131.5t-131.5 -316.5t131.5 -316.5t316.5 -131.5t316.5 131.5t131.5 316.5t-131.5 316.5t-316.5 131.5zM289 72q7 0 10 1q103 37 158 41q12 1 20.5 10t8.5 22v59q0 15 -11 24q-37 32 -54.5 94.5t-17.5 128.5q0 136 125 136q118 0 118 -136
q0 -66 -26 -132.5t-64 -96.5q-12 -10 -12 -25v-55q0 -13 8.5 -22t20.5 -10q50 -6 148 -45q1 0 3 -0.5l2 -0.5q-97 -65 -214 -65q-122 0 -223 72zM765 95q0 23 -20 31q-80 31 -137 43v14q48 45 75 121.5t27 147.5q0 96 -47.5 148t-134.5 52q-89 0 -139 -53t-50 -147
q0 -23 2.5 -49.5t10 -66.5t25.5 -79t45 -66v-17q-61 -11 -145 -41q-11 -3 -16.5 -13.5t-3.5 -21.5q-60 53 -94.5 127.5t-34.5 158.5q0 159 112.5 271.5t271.5 112.5t271.5 -112.5t112.5 -271.5q0 -85 -35 -160t-96 -129z" />
    <glyph glyph-name="settings" unicode="&#x126;" 
d="M512 288q-40 0 -68 28t-28 68t28 68t68 28t68 -28t28 -68t-28 -68t-68 -28zM512 416q-13 0 -22.5 -9.5t-9.5 -22.5t9.5 -22.5t22.5 -9.5t22.5 9.5t9.5 22.5t-9.5 22.5t-22.5 9.5zM631 -64q-16 0 -26 13l-73 101q-20 -2 -40 0l-73 -101q-13 -18 -35 -12q-52 15 -98 41
q-19 10 -16 32l20 124q-15 13 -28 28l-124 -20q-22 -3 -32 16q-26 46 -41 98q-6 22 12 35l101 73q-1 10 -1 20t1 20l-101 73q-18 13 -12 35q15 52 41 98q10 19 32 16l124 -20q13 15 28 28l-20 124q-3 22 16 32q46 26 98 41q22 6 35 -12l73 -101q20 2 40 0l73 101
q13 18 35 12q52 -15 98 -41q19 -10 16 -32l-20 -124q15 -13 28 -28l124 20q22 3 32 -16q26 -46 41 -98q6 -22 -12 -35l-101 -73q1 -10 1 -20t-1 -20l101 -73q18 -13 12 -35q-15 -52 -41 -98q-10 -19 -32 -16l-124 20q-13 -15 -28 -28l20 -124q3 -22 -16 -32q-46 -26 -98 -41
q-5 -1 -9 -1zM337 23q21 -10 44 -18l70 97q11 15 30 13q31 -4 62 0q19 2 30 -13l70 -97q23 8 44 18l-19 119q-2 18 12 30q25 19 44 44q12 14 30 12l119 -19q10 21 18 44l-97 70q-15 11 -13 30q2 17 2 31t-2 31q-2 19 13 30l97 70q-8 23 -18 44l-119 -19q-18 -2 -30 12
q-19 25 -44 44q-14 12 -12 30l19 119q-21 10 -44 18l-70 -97q-11 -15 -30 -13q-31 4 -62 0q-19 -2 -30 13l-70 97q-23 -8 -44 -18l19 -119q2 -18 -12 -30q-25 -19 -44 -44q-12 -14 -30 -12l-119 19q-10 -21 -18 -44l97 -70q15 -11 13 -30q-2 -17 -2 -31t2 -31q2 -19 -13 -30
l-97 -70q8 -23 18 -44l119 19q18 2 30 -12q19 -25 44 -44q14 -12 12 -30z" />
    <glyph glyph-name="question" unicode="&#x127;" 
d="M512 112zM464 112q0 20 14 34t34 14t34 -14t14 -34t-14 -34t-34 -14t-34 14t-14 34zM512 -64q-185 0 -316.5 131.5t-131.5 316.5t131.5 316.5t316.5 131.5t316.5 -131.5t131.5 -316.5t-131.5 -316.5t-316.5 -131.5zM512 768q-104 0 -192.5 -51.5t-140 -140t-51.5 -192.5
t51.5 -192.5t140 -140t192.5 -51.5t192.5 51.5t140 140t51.5 192.5t-51.5 192.5t-140 140t-192.5 51.5zM512 222q-13 0 -22.5 9.5t-9.5 22.5v54q0 25 13 50t25.5 39.5t36.5 38.5q18 18 26.5 27t17.5 23t9 24q0 40 -28 68.5t-68 28.5t-68 -27.5t-28 -67.5q0 -13 -9.5 -22.5
t-22.5 -9.5t-22.5 9.5t-9.5 22.5q0 66 47 112.5t113 46.5t113 -47t47 -114q0 -22 -12 -45.5t-24 -37t-35 -36.5q-19 -19 -28.5 -29t-19 -26t-9.5 -28v-54q0 -13 -9.5 -22.5t-22.5 -9.5z" />
    <glyph glyph-name="form" unicode="&#x130;" 
d="M800 -32h-576q-40 0 -68 28t-28 68v640q0 40 28 68t68 28h576q40 0 68 -28t28 -68v-640q0 -40 -28 -68t-68 -28zM224 736q-13 0 -22.5 -9.5t-9.5 -22.5v-640q0 -13 9.5 -22.5t22.5 -9.5h576q13 0 22.5 9.5t9.5 22.5v640q0 13 -9.5 22.5t-22.5 9.5h-576zM641 351h-353
q-13 0 -22.5 9.5t-9.5 22.5t9.5 22.5t22.5 9.5h353q13 0 22.5 -9.5t9.5 -22.5t-9.5 -22.5t-22.5 -9.5zM735 160h-447q-14 0 -23 9.5t-9 23t9 22.5t23 9h447q13 0 22.5 -9t9.5 -22.5t-9.5 -23t-22.5 -9.5zM304 591zM256 591q0 20 14 34t34 14t34 -14t14 -34t-14 -34t-34 -14
t-34 14t-14 34zM511 591zM463 591q0 20 14 34t34 14t34 -14t14 -34t-14 -34t-34 -14t-34 14t-14 34zM719 591zM671 591q0 20 14 34t34 14t34 -14t14 -34t-14 -34t-34 -14t-34 14t-14 34z" />
    <glyph glyph-name="right" unicode="&#x128;" 
d="M761 364l1 1t1 2q7 13 4.5 28.5t-14.5 26.5l-353 334q-15 14 -34.5 13.5t-33.5 -15t-13 -34.5t15 -34l317 -299l-316 -305q-14 -13 -14.5 -33t13.5 -35q14 -14 35 -14q19 0 33 13l350 338l0.5 1t1 1t1 0.5l0.5 0.5q1 2 6 10z" />
    <glyph glyph-name="cart" unicode="&#x129;" 
d="M353 64q-27 0 -45.5 -18.5t-18.5 -45.5t18.5 -45.5t45 -18.5t45.5 18.5t19 45.5t-19 45.5t-45 18.5v0zM801 64q-27 0 -45.5 -18.5t-18.5 -45.5t18.5 -45.5t45 -18.5t45.5 18.5t19 45.5t-19 45.5t-45 18.5v0zM864 96h-520q-34 0 -61 24t-31 59l-54 382l-31 179
q-2 11 -11 19.5t-19 8.5h-41q-13 0 -22.5 9.5t-9.5 22.5t9.5 22.5t22.5 9.5h41q35 0 62 -24t31 -59l31 -178l54 -384q2 -11 10.5 -19t18.5 -8h520q13 0 22.5 -9.5t9.5 -22.5t-9.5 -22.5t-22.5 -9.5zM384 224q-12 0 -21.5 8.5t-10.5 21.5t8 23t22 11l434 32q12 0 21 8t10 19
l51 288q2 18 -9 30q-6 7 -15 7h-554q-13 0 -22.5 9.5t-9.5 22.5t9.5 22.5t22.5 9.5h554q38 0 63 -29q30 -33 24 -81l-51 -289q-4 -33 -30.5 -57t-61.5 -24l-431 -32h-3z" />
    <glyph glyph-name="profile" unicode="&#x146;" 
d="M383 -64h-3q-121 11 -201.5 62t-80.5 116q0 41 38 74.5t93.5 54t123.5 30.5v13q-34 25 -56 60t-33 78t-14.5 83t-3.5 92q0 109 61 171t169 62q106 0 163 -60t57 -173q0 -52 -16.5 -114t-45.5 -116q-6 -12 -19 -15.5t-24.5 2.5t-15.5 18.5t2 24.5q25 47 40 101.5t15 98.5
q0 169 -156 169q-166 0 -166 -169q0 -47 3 -82.5t12 -73t28.5 -66.5t48.5 -48q15 -9 15 -27v-57q0 -12 -8.5 -21.5t-20.5 -10.5q-96 -10 -161 -41.5t-65 -57.5q0 -33 63.5 -69.5t159.5 -44.5q14 -1 22.5 -11.5t7.5 -23.5q-2 -12 -11 -20.5t-21 -8.5zM769 128h-128
q-14 0 -23 9.5t-9 22.5t9 22.5t23 9.5h128q13 0 22.5 -9.5t9.5 -22.5t-9.5 -22.5t-22.5 -9.5zM705 29h-64q-14 0 -23 9t-9 22.5t9 23t23 9.5h64q13 0 22.5 -9.5t9.5 -23t-9.5 -22.5t-22.5 -9zM833 -67h-256q-40 0 -68 28t-28 68v163q0 40 28 68t68 28h256q39 0 67.5 -28
t28.5 -68v-163q0 -40 -28.5 -68t-67.5 -28zM577 224q-13 0 -22.5 -9.5t-9.5 -22.5v-163q0 -14 9.5 -23t22.5 -9h256q13 0 22.5 9t9.5 23v163q0 13 -9.5 22.5t-22.5 9.5h-256z" />
    <glyph glyph-name="home" unicode="&#x145;" 
d="M980 491l-406 321q-26 21 -62 21t-62 -21l-406 -321q-10 -8 -11.5 -21t6.5 -23.5t21 -12t23 6.5l13 11v-388q0 -40 34.5 -68t74.5 -28h640q37 0 60 26.5t23 69.5v386l12 -9q8 -7 20 -7q15 0 25 12q8 11 6.5 24t-11.5 21zM480 32v177q0 14 32 14t32 -14v-177h-64zM864 64
q0 -32 -19 -32h-236l-0.5 0.5l-0.5 0.5v176q0 31 -25 54.5t-71 23.5t-71 -23.5t-25 -54.5v-176l0.5 -0.5l0.5 -0.5h-212q-15 0 -30 10.5t-15 21.5v438l329 260q9 7 22.5 7t22.5 -7l330 -261v-437z" />
    <glyph glyph-name="activity" unicode="&#x144;" 
d="M719 256q-68 0 -133 35q-72 29 -126 29q-57 0 -128 -30q-15 -6 -29.5 3.5t-14.5 26.5v416q0 22 20 30q84 34 155 34t150 -35q2 0 3 -2q48 -27 101 -27q23 0 48.5 7.5t35.5 12.5l14 7q16 10 32.5 1t16.5 -28v-416q0 -17 -15 -27q-6 -4 -18.5 -10.5t-46 -16.5t-65.5 -10z
M460 384q69 0 152 -34l4 -2q5 -3 15.5 -8t37 -12.5t50.5 -7.5q40 0 81 19v348q-43 -15 -83 -15q-69 0 -131 35q-68 29 -123 29q-45 0 -111 -22v-349q62 19 108 19zM544 -32h-352v800q0 13 9.5 22.5t22.5 9.5t22.5 -9.5t9.5 -22.5v-736h288q13 0 22.5 -9.5t9.5 -22.5
t-9.5 -22.5t-22.5 -9.5zM224 -32h-63q-13 0 -22.5 9.5t-9.5 22.5t9.5 22.5t22.5 9.5h63q13 0 22.5 -9.5t9.5 -22.5t-9.5 -22.5t-22.5 -9.5z" />
    <glyph glyph-name="friend" unicode="&#x134;" 
d="M401 -64q-336 0 -336 162q0 37 34 67.5t84.5 49t111.5 28.5v6q-31 24 -51.5 57t-30 73t-13 74.5t-3.5 76.5q0 99 55 155t153 56h7q97 0 152.5 -56t55.5 -155q0 -42 -3.5 -76.5t-13 -74.5t-30 -73t-51.5 -57v-6q61 -10 111.5 -28.5t84.5 -49t34 -67.5q0 -24 -8.5 -45.5
t-32 -43.5t-61 -37.5t-101.5 -25.5t-148 -10zM405 677q-144 0 -144 -147q0 -39 3 -70t11 -64.5t25.5 -60t43.5 -42.5q15 -10 15 -27v-52q0 -12 -8.5 -21t-20.5 -10q-84 -9 -142.5 -36.5t-58.5 -48.5q0 -98 272 -98q137 0 212 25.5t75 72.5q0 21 -58.5 48.5t-142.5 36.5
q-13 1 -21 10t-8 21v52q0 17 15 27q26 16 43.5 42.5t25.5 60t11 64.5t3 70q0 147 -144 147h-7zM899 132q-13 0 -22.5 9.5t-9.5 22.5t-26 33t-73.5 38.5t-97.5 23.5q-12 2 -20 11t-8 21v67q0 17 14 27q29 18 49 48t28.5 63.5t11.5 58t3 47.5q0 40 -12 67.5t-33.5 41.5
t-43.5 19.5t-48 5.5q-13 0 -22.5 9.5t-9.5 22.5t9.5 22.5t22.5 9.5q93 0 147 -53t54 -145q0 -27 -3.5 -55.5t-13.5 -67.5t-33 -76t-56 -62v-22q53 -10 103.5 -31.5t86 -55t35.5 -68.5q0 -13 -9.5 -22.5t-22.5 -9.5z" />
    <glyph glyph-name="attention" unicode="&#x153;" 
d="M513 31q-146 0 -276.5 89.5t-197.5 234.5q-1 1 -1 4q-2 3 -2 6v0q-1 4 -2 7l-1 8v6q1 8 2 11l2 8v2q1 3 2 5q67 145 197.5 234t277 89t277 -89t196.5 -235q1 -1 2 -4q1 -1 1 -2q2 -5 2 -11q1 -2 1 -11q0 -6 -1 -13v0v-1t-0.5 -3.5t-1.5 -4.5l-1 -1q-1 -4 -3 -7
q-65 -144 -196 -233t-277 -89zM98 379q60 -128 174 -206t241 -78t241.5 78t173.5 206v1l1 1v1v4q-1 0 -1 1v0q-59 128 -173 206t-241.5 78t-242 -78t-173.5 -206v-1v-2v-1v-1v-0.5v-0.5v-2zM514 223q-7 0 -13 3q-11 5 -26 12.5t-44.5 26.5t-51.5 39.5t-39.5 50t-17.5 59.5
q0 67 40 101q17 15 39.5 21.5t34.5 5t18 -0.5q13 -2 21 -12.5t6 -24t-13 -21t-24 -5.5v0q-28 0 -41 -11q-17 -15 -17 -53q0 -31 40.5 -65.5t87.5 -57.5q47 23 87.5 57.5t40.5 65.5q0 20 -7 31.5t-26 26.5l-77 -54q-11 -7 -24 -4.5t-20.5 13.5t-5 24t13.5 20l96 67
q19 13 37 -1l4 -3q19 -14 28 -22t21.5 -23t18 -33.5t5.5 -41.5q0 -30 -17.5 -59.5t-39.5 -50t-51.5 -39.5t-44 -26.5t-26.5 -12.5q-6 -3 -13 -3z" />
    <glyph glyph-name="tubiaozitihua04" unicode="&#x209;" 
d="M915 420h-44q-18 0 -31.5 -10.5t-13.5 -25.5t13.5 -25.5t31.5 -10.5h44q19 0 32 10.5t13 25.5t-13 25.5t-32 10.5zM512 630q-103 0 -174.5 -72t-71.5 -174.5t71.5 -174t174.5 -71.5t174.5 71.5t71.5 174t-71.5 174.5t-174.5 72zM512 205q-74 0 -126.5 52.5t-52.5 126.5
t52.5 126.5t126.5 52.5t126.5 -52.5t52.5 -126.5t-52.5 -126.5t-126.5 -52.5zM197 384q0 15 -12.5 25.5t-30.5 10.5h-45q-19 0 -32 -10.5t-13 -25.5t13 -25.5t32 -10.5h45q18 0 30.5 10.5t12.5 25.5zM512 698q15 0 25.5 13t10.5 31v45q0 19 -10.5 32t-25.5 13t-25.5 -13
t-10.5 -32v-45q0 -18 10.5 -31t25.5 -13zM512 70q-15 0 -25.5 -13t-10.5 -31v-45q0 -19 10.5 -32t25.5 -13t25.5 13t10.5 32v45q0 18 -10.5 31t-25.5 13zM842 663q13 13 15 30t-8.5 27.5t-27.5 8.5t-30 -15l-8.5 -8.5l-14 -14l-8.5 -8.5q-13 -14 -15 -30.5t8.5 -27t27 -8.5
t30.5 15q4 5 31 31v0zM213 136l-15.5 -15.5l-15.5 -15.5q-13 -13 -15 -30t8.5 -27.5t27.5 -8.5t30 15q15 16 31 31q13 14 15 30.5t-8.5 27t-27.5 8.5t-30 -15zM233 714q-13 13 -30 15t-27.5 -8.5t-8.5 -27.5t15 -30l15.5 -15.5l15.5 -15.5q14 -13 30.5 -15t27 8.5t8.5 27
t-15 30.5q-3 2 -16.5 15.5t-14.5 15.5zM760 85l31 -31q13 -13 30 -15t27.5 8.5t8.5 27.5t-15 30q-16 15 -31 31q-14 13 -30.5 15t-27 -8.5t-8.5 -27t15 -30.5z" />
    <glyph glyph-name="fuzhi" unicode="&#x200;" 
d="M851 159h-451q-46 0 -79 33t-33 79v451q0 47 33 80t79 33h451q47 0 80 -33t33 -80v-451q0 -46 -33 -79t-80 -33zM907 722q0 23 -16.5 39.5t-39.5 16.5h-451q-23 0 -39.5 -16.5t-16.5 -39.5v-451q0 -23 16.5 -39.5t39.5 -16.5h451q23 0 39.5 16.5t16.5 39.5v451zM119 497
v-451q0 -23 16.5 -39.5t39.5 -16.5h451q23 0 39.5 16.5t16.5 39.5v56h56v-56q0 -47 -33 -80t-79 -33h-451q-47 0 -80 33t-33 80v451q0 46 33 79t80 33h56v-56h-56q-23 0 -39.5 -16.5t-16.5 -39.5z" />
    <glyph glyph-name="dianhua" unicode="&#x140;" 
d="M994 130l-4 6l-11 12q-12 14 -43 40q-44 37 -81 61l-50 32l-22 11q-17 8 -37 1q-16 -5 -24 -19l-18 -25q-3 -7 -7 -14q-4 -6 -13 -24.5t-15 -29.5q-8 -14 -22 -24.5t-32.5 -14t-38.5 7.5q-105 60 -177 128q-103 98 -139 178q-8 13 -1.5 38t27.5 35q14 7 36 15.5t32 14.5
q7 5 15 9.5t19 11.5q1 0 4.5 3.5t4.5 3.5q1 2 3 3q19 19 9 44l-3 8q-14 34 -37 72q-18 30 -43 63q-16 22 -33 38t-26 21l-10 5q-9 5 -13 7q-24 10 -51 -2q-17 -6 -32.5 -15.5t-22.5 -15t-27 -21.5q-46 -38 -72 -85t-20 -90q10 -74 91 -204.5t188.5 -233t245 -179
t215.5 -85.5q82 -11 175 75q40 37 57 75q7 14 8.5 30.5t-5.5 32.5z" />
    <glyph glyph-name="cmstubiaozitihua08" unicode="&#x167;" 
d="M806 260q-28 -45 -109.5 -74t-184.5 -29t-184 29t-109 74q-4 6 -7 7t-4 -1.5t-1 -5.5v-88q0 -42 40.5 -81.5t111.5 -65t153 -25.5t153 25.5t111.5 65t40.5 81.5v88q0 3 -1 5.5t-4 1.5t-6 -7zM806 483q-27 -40 -108.5 -65.5t-185.5 -25.5t-185 25.5t-109 65.5q-3 5 -6 6
t-4 -1t-1 -5v-103q0 -57 89.5 -98t216 -41t215.5 41t89 98v103q0 3 -1 5t-4 1t-6 -6zM512.5 768q-126.5 0 -216 -33.5t-89.5 -81.5v-55q0 -33 40.5 -61t111 -44.5t153.5 -16.5t153.5 16.5t111 44.5t40.5 61v55q0 48 -89 81.5t-215.5 33.5z" />
    <glyph glyph-name="squarecheck" unicode="&#x122;" 
d="M727 502.5q-9 9.5 -22.5 9.5t-22.5 -9l-234 -236l-103 106q-9 9 -22.5 9.5t-23 -9t-9.5 -22.5t9 -23l126 -129h1v-1q1 -1 7 -4q0 -1 1 -1.5t2 -1.5q6 -2 12 -2t12 2q1 1 2 1.5t2 1.5q5 3 7 4v0v1l256 259q10 9 9.5 22t-9.5 22.5zM832 -32h-640q-40 0 -68 28t-28 68v640
q0 40 28 68t68 28h640q40 0 68 -28t28 -68v-640q0 -40 -28 -68t-68 -28zM192 736q-13 0 -22.5 -9.5t-9.5 -22.5v-640q0 -13 9.5 -22.5t22.5 -9.5h640q13 0 22.5 9.5t9.5 22.5v640q0 13 -9.5 22.5t-22.5 9.5h-640z" />
    <glyph glyph-name="add" unicode="&#x121;" 
d="M800 416h-256v256q0 13 -9.5 22.5t-22.5 9.5t-22.5 -9.5t-9.5 -22.5v-256h-256q-13 0 -22.5 -9.5t-9.5 -22.5t9.5 -22.5t22.5 -9.5h256v-256q0 -13 9.5 -22.5t22.5 -9.5t22.5 9.5t9.5 22.5v256h256q13 0 22.5 9.5t9.5 22.5t-9.5 22.5t-22.5 9.5z" />
    <glyph glyph-name="gou" unicode="&#x174;" 
d="M874 746q-98 98 -230 133t-264 0t-230 -133q-74 -74 -112 -169.5t-38 -192.5t38 -193t112 -169q98 -99 230 -134t264 0t230 134q74 73 112.5 169t38.5 193t-38.5 192.5t-112.5 169.5zM512.5 -80q-94.5 0 -180.5 36.5t-148 98.5t-99 148t-37 180.5t37 180.5t99 148t148 99
t180.5 37t180.5 -37t148 -99t98.5 -148t36.5 -180.5t-36.5 -180.5t-98.5 -148t-148 -98.5t-180.5 -36.5zM686 564l-265 -275l-83 86q-11 11 -27 11t-27.5 -11.5t-11.5 -28.5t11 -28l110 -114q12 -12 28 -12t27 12q2 1 3 3l290 300q11 12 11 29t-11 28.5t-27.5 11.5
t-27.5 -12z" />
    <glyph glyph-name="info" unicode="&#x120;" 
d="M512 -62q-91 0 -173.5 35.5t-142 95t-95 142t-35.5 173.5t35.5 173.5t95 142t142 95t173.5 35.5t173.5 -35.5t142 -95t95 -142t35.5 -173.5t-35.5 -173.5t-95 -142t-142 -95t-173.5 -35.5zM512 766q-104 0 -192 -51t-139 -139t-51 -192t51 -192t139 -139t192 -51t192 51
t139 139t51 192t-51 192t-139 139t-192 51zM512 592zM464 592q0 20 14 34t34 14t34 -14t14 -34t-14 -34t-34 -14t-34 14t-14 34zM512 128q-13 0 -22.5 9.5t-9.5 22.5v288q0 13 9.5 22.5t22.5 9.5t22.5 -9.5t9.5 -22.5v-288q0 -13 -9.5 -22.5t-22.5 -9.5z" />
    <glyph glyph-name="ttpodicon" unicode="&#x169;" 
d="M924 78h-80v78q0 5 -3.5 8.5t-8.5 3.5h-30q-5 0 -8 -3.5t-3 -8.5v-78h-80q-5 0 -8.5 -3t-3.5 -8v-29q0 -5 3.5 -8t8.5 -3h80v-79q0 -4 3 -7.5t8 -3.5h30q5 0 8.5 3.5t3.5 7.5v79h80q4 0 7.5 3t3.5 8v29q0 5 -3.5 8t-7.5 3zM807.5 230q10.5 11 10 26t-11.5 25
q-62 58 -142 88q50 35 79.5 89.5t29.5 118.5q0 105 -75 180t-180.5 75t-180 -75t-74.5 -180q0 -64 29 -118.5t79 -90.5q-122 -45 -198 -153t-76 -241q0 -15 10.5 -26t25.5 -11t25.5 11t10.5 26q0 93 45.5 172t123.5 126.5t171 49.5h9h9q132 -3 229 -94q11 -10 26 -9.5
t25.5 11.5zM526 395h-8h-8q-73 3 -124 55.5t-51 126.5q0 75 53.5 128.5t129 53.5t129 -53.5t53.5 -128.5q0 -73 -51 -126t-123 -56z" />
    <glyph glyph-name="recharge" unicode="&#x139;" 
d="M512 832q-185 0 -316.5 -131.5t-131.5 -316.5t131.5 -316.5t316.5 -131.5t316.5 131.5t131.5 316.5t-131.5 316.5t-316.5 131.5zM512 0q-159 0 -271.5 112.5t-112.5 271.5t112.5 271.5t271.5 112.5t271.5 -112.5t112.5 -271.5t-112.5 -271.5t-271.5 -112.5zM641 384
q13 0 22.5 9.5t9.5 22.5t-9.5 22.5t-22.5 9.5h-97v15l119 124q9 10 8.5 23t-10 22t-22.5 9t-22 -10l-102 -107l-107 108q-10 9 -23 9t-22.5 -9.5t-10 -22.5t9.5 -23l118 -118v-20h-95q-13 0 -22.5 -9.5t-9.5 -22.5t9.5 -22.5t22.5 -9.5h95v-64h-95q-13 0 -22.5 -9.5
t-9.5 -22.5t9.5 -22.5t22.5 -9.5h95v-95q0 -13 9.5 -22.5t22.5 -9.5t22.5 9.5t9.5 22.5v95h97q13 0 22.5 9.5t9.5 22.5t-9.5 22.5t-22.5 9.5h-97v64h97z" />
    <glyph glyph-name="icon52" unicode="&#x148;" 
d="M512 831q-91 0 -173.5 -35.5t-142.5 -95.5t-95.5 -142.5t-35.5 -173.5t35.5 -173.5t95.5 -142.5t142.5 -95.5t173.5 -35.5t173.5 35.5t142.5 95.5t95.5 142.5t35.5 173.5t-35.5 173.5t-95.5 142.5t-142.5 95.5t-173.5 35.5zM686 334h-348v100h348v-100z" />
    <glyph glyph-name="xue" unicode="&#x237;" 
d="M948 420q1 2 -1 12t4.5 23.5t21.5 16.5q5 3 2.5 11.5t-8.5 18.5l-6 9l-37 21l-89 -112h-117q-7 46 -34 86l82 81l143 -16l11 41q-1 3 -2 7t-4 13t-6.5 13.5t-6.5 2.5q-15 -8 -27.5 -3.5t-20.5 13.5l-7 9l54 54l-20 20l-14 14l-17 16l-54 -54q-2 1 -4 3t-8 8.5t-8.5 12.5
t-4 15t5.5 16q3 5 -6 9.5t-20 7.5l-10 3l-41 -12l16 -143l-80 -80q-40 30 -87 38v112l112 89l-21 37q-1 1 -3 2t-6.5 4t-9 5t-9 3.5t-7.5 1t-4 -3.5q-3 -15 -16 -21.5t-25 -4.5l-11 1v76h-29h-19h-24v-76q-2 1 -12 -1t-23.5 4.5t-16.5 21.5q-3 5 -11.5 2.5t-17.5 -8.5
l-10 -6l-21 -37l112 -89v-112q-48 -7 -88 -36l-79 78l17 143l-42 12q-3 -1 -7 -2t-13 -4t-13.5 -6.5t-2.5 -7.5q8 -14 3.5 -26.5t-13.5 -20.5l-9 -8l-54 54l-17 -16l-13 -14l-20 -20l54 -54q-1 -2 -3 -4t-8.5 -8t-12 -8.5t-15 -4t-16.5 5.5q-5 3 -9.5 -6t-7.5 -20l-2 -10
l11 -41l143 16l79 -79q-28 -41 -36 -88h-113l-89 112l-37 -21q-1 -1 -2 -2.5t-4 -6.5t-5 -9.5t-3.5 -9t-1 -7.5t3.5 -4q15 -3 21 -16t5 -25l-1 -11h-76v-24v-19v-29h76q-1 -2 1 -12t-4.5 -23.5t-21.5 -16.5q-5 -3 -2.5 -11.5t8.5 -17.5l6 -10l37 -21l89 112h114
q9 -46 38 -85l-82 -82l-143 17l-11 -42q0 -2 1.5 -6.5t4 -13t6 -13.5t7.5 -3q15 8 27 4t20 -14l8 -9l-54 -54l17 -16l13 -14l20 -20l54 54q2 -1 4 -3l8.5 -8.5t8.5 -12t3.5 -15t-4.5 -16.5q-3 -5 6 -9.5t18.5 -7.5t10.5 -2l42 11l-17 143l84 83q39 -26 83 -33v-120l-112 -89
l21 -37q1 -1 3 -2t6.5 -4t9 -4.5t9 -3.5t7.5 -1.5t4 3.5q3 15 16 21.5t25 4.5l11 -1v-76h24h20h28v76q2 -1 12 1t23.5 -4.5t16.5 -21.5q3 -5 11.5 -2t18.5 8l9 6l22 37l-113 89v120q44 8 82 34l85 -84l-16 -143l41 -11q3 0 7 1.5t13 4t13.5 6t2.5 7.5q-17 28 19 55l54 -54
l20 20l14 14l16 16l-53 54q1 2 2.5 4t8 8t12.5 8.5t15 4t17 -5.5q4 -2 9 7t7 19l3 10l-11 42l-143 -17l-85 84q28 39 36 83h118l89 -112l37 21q1 1 2 3t4 6.5t5 9t3.5 9t1 7.5t-3.5 4q-15 3 -21 16t-5 25l1 11h76v29v19v24h-76zM513 248q-57 0 -97.5 40.5t-40.5 97.5
t40.5 97t97.5 40t97 -40t40 -97t-40 -97.5t-97 -40.5z" />
    <glyph glyph-name="gengduo" unicode="&#x240;" 
d="M512 653q37 0 63.5 26t26.5 63.5t-26.5 63.5t-63.5 26t-63.5 -26t-26.5 -63.5t26.5 -63.5t63.5 -26zM512 474q-37 0 -63.5 -26.5t-26.5 -63.5t26.5 -63.5t63.5 -26.5t63.5 26.5t26.5 63.5t-26.5 63.5t-63.5 26.5zM512 115q-37 0 -63.5 -26t-26.5 -63.5t26.5 -63.5
t63.5 -26t63.5 26t26.5 63.5t-26.5 63.5t-63.5 26z" />
    <glyph glyph-name="pinglun" unicode="&#x155;" 
d="M821.5 512q-8.5 0 -14.5 -6t-6 -14v-369q0 -17 -12 -29t-29 -12h-512q-17 0 -29 12t-12 29v512q0 17 12 29t29 12h348q9 0 15 6t6 14.5t-6 14.5t-15 6h-368q-26 0 -44 -18t-18 -44v-553q0 -25 18 -43t44 -18h553q25 0 43 18t18 43v390q0 8 -6 14t-14.5 6zM417 312
q6 -6 14.5 -6t14.5 6l368 370q6 6 6 14.5t-6 14.5t-14.5 6t-14.5 -6l-368 -370q-6 -6 -6 -14.5t6 -14.5z" />
    <glyph glyph-name="share" unicode="&#x115;" 
d="M769 192q-54 0 -91 -38l-310 172q15 28 15 58q0 17 -6 36l305 189q37 -33 85 -33q53 0 90.5 37.5t37.5 90.5t-37.5 90.5t-90.5 37.5t-90.5 -37.5t-37.5 -90.5q0 -20 8 -41l-302 -188q-38 37 -90 37q-53 0 -90.5 -37.5t-37.5 -90.5t37.5 -90.5t90.5 -37.5q38 0 70 21
l321 -179q-5 -18 -5 -34q0 -53 37.5 -90.5t90.5 -37.5t90.5 37.5t37.5 90.5t-37.5 90.5t-90.5 37.5zM767.5 768q26.5 0 45 -19t18.5 -45.5t-18.5 -45t-45 -18.5t-45.5 18.5t-19 45t19 45.5t45.5 19zM191 384.5q0 26.5 19 45t45.5 18.5t45 -18.5t18.5 -45t-18.5 -45.5
t-45 -19t-45.5 19t-19 45.5zM768.5 0q-26.5 0 -45 19t-18.5 45.5t18.5 45t45 18.5t45.5 -18.5t19 -45t-19 -45.5t-45.5 -19z" />
    <glyph glyph-name="dianhua1" unicode="&#x141;" 
d="M673 -128q-114 0 -233.5 54t-219.5 154q-107 107 -163 236t-49.5 252t74.5 213l49 -37q-59 -77 -62 -186t48 -224.5t146 -210.5q94 -95 208.5 -144.5t222 -44.5t182.5 65l38 -47q-99 -80 -241 -80zM974 27l-242 243l-45 -45q-70 -70 -170 -70v0q-99 0 -169 70
q-71 70 -71 170t71 171l44 44l-242 243l43 43l285 -286l-88 -87q-52 -53 -52 -127.5t52.5 -127.5t126.5 -53v0q75 0 127 53l87 88l285 -286z" />
    <glyph glyph-name="infenicon02" unicode="&#x162;" 
d="M65 336q-1 -4 -1 -8v-307q0 -21 15.5 -36.5t37.5 -15.5h267q21 0 36.5 15.5t15.5 36.5v307q0 22 -15.5 37.5t-36.5 15.5h-100l5 1q0 120 34 176t114 56v185q-67 -4 -121 -19.5t-92 -39t-66.5 -58t-46 -71.5t-28 -84.5t-14.5 -92t-4 -98.5zM588 336v-8v-307
q0 -21 15.5 -36.5t36.5 -15.5h267q22 0 37.5 15.5t15.5 36.5v307q0 22 -15.5 37.5t-37.5 15.5h-99l4 1q0 120 34.5 176t113.5 56v185q-67 -4 -120.5 -19.5t-92 -39t-67 -58t-45.5 -71.5t-27.5 -84.5t-14.5 -92t-5 -98.5z" />
    <glyph glyph-name="tuichu" unicode="&#x143;" 
d="M891.5 181q-17.5 0 -26.5 -12t-9 -32v-58q-5 -25 -20.5 -36.5t-46.5 -13.5h-568q-26 3 -38.5 14t-15.5 35v604q3 25 13.5 37t33.5 16h593q23 -4 34.5 -17t14.5 -37v-49q0 -20 9 -32t26.5 -12t26 12t8.5 32v93q-2 35 -27 59t-60 24h-658q-35 -2 -59.5 -27t-24.5 -60v-677
q2 -34 26 -58t57 -26h650h9q35 0 60.5 24.5t27.5 59.5v93q0 20 -9 32t-26.5 12zM706.5 181q9.5 -9 23.5 -10.5t24 6.5l165 166q9 9 7 26q0 10 -5 17q-2 3 -5 5l-3 3l-159 159q-9 9 -24 8t-24 -10t-10.5 -24t7.5 -24l100 -101h-261q-13 0 -26 -10.5t-13 -25.5t12.5 -25
t26.5 -10l263 -1l-102 -102q-9 -9 -7.5 -23.5t11 -23.5z" />
    <glyph glyph-name="keyongjifen" unicode="&#x171;" 
d="M512 9q-106 0 -195.5 22t-141.5 60t-53 83q-31 8 -58 16q-2 -7 -2 -16q0 -61 60.5 -112.5t164 -82t225.5 -30.5t225.5 30.5t164 82t60.5 112.5q0 11 -2 21q-28 -9 -58 -17v-4q0 -45 -52.5 -83t-142 -60t-195.5 -22zM512 219q-106 0 -195.5 22t-141.5 60t-53 83
q-31 7 -58 16q-2 -8 -2 -16q0 -61 60.5 -113t164 -82t225.5 -30t225.5 30t164 82t60.5 113q0 11 -2 21q-28 -10 -58 -18v-3q0 -45 -52.5 -83t-142 -60t-195.5 -22zM122 594q0 45 52.5 83t142 60t195.5 22t195.5 -22t142 -60t52.5 -83t-52.5 -83t-142 -60t-195.5 -22
t-195.5 22t-142 60t-52.5 83zM62 594q0 -61 60.5 -113t164 -82t225.5 -30t225.5 30t164 82t60.5 113t-60.5 112.5t-164 82t-225.5 30.5t-225.5 -30.5t-164 -82t-60.5 -112.5z" />
    <glyph glyph-name="service" unicode="&#x112;" 
d="M190.5 -65q-13.5 0 -22.5 9.5t-9 22.5q0 53 59 89t167 51v10q-28 21 -47.5 52.5t-29 59.5t-15 68t-6 61.5t-0.5 57.5q0 104 58.5 163.5t161.5 59.5h7q104 0 162 -59.5t58 -163.5v-32q-1 -13 -10.5 -22t-22.5 -8.5t-22.5 10t-9 22.5t0.5 30q0 79 -39 119t-117 40h-7
q-156 0 -156 -159q0 -46 2.5 -78t10 -68.5t25.5 -64t45 -44.5q15 -10 15 -27v-55q0 -12 -8 -21.5t-21 -10.5q-91 -9 -144 -32.5t-53 -47.5q0 -13 -9.5 -22.5t-23 -9.5zM833.5 -65q-13.5 0 -22.5 9.5t-9 22.5q0 24 -53.5 47.5t-144.5 32.5q-12 1 -20.5 10.5t-8.5 21.5v55
q0 13 9.5 22.5t23 9.5t22.5 -9.5t9 -22.5v-27q109 -15 168 -51t59 -89q0 -13 -9.5 -22.5t-23 -9.5zM612 223q-60 0 -78 4q-11 4 -17.5 14.5t-4 22.5t12.5 19.5t22 6.5q70 -8 139.5 2t83.5 41q6 12 18.5 16.5t24.5 -1.5t16.5 -18.5t-1.5 -24.5q-40 -82 -216 -82zM896 256
q-13 0 -22.5 9.5t-9.5 22.5v112l-43 15q-21 8 -21 30q0 121 -84.5 206t-203.5 85t-203.5 -85t-84.5 -206q0 -16 -13 -26l-19 -13v-118q0 -13 -9.5 -22.5t-22.5 -9.5t-22.5 9.5t-9.5 22.5v134q0 17 13 26l19 14q5 93 52.5 170.5t127 122.5t172.5 45q139 0 240.5 -96.5
t110.5 -235.5l44 -15q21 -8 21 -31v-134q0 -13 -9.5 -22.5t-22.5 -9.5z" />
    <glyph glyph-name="sort" unicode="&#x111;" 
d="M384 576h512q13 0 22.5 9.5t9.5 22.5t-9.5 22.5t-22.5 9.5h-512q-13 0 -22.5 -9.5t-9.5 -22.5t9.5 -22.5t22.5 -9.5zM896 416h-512q-13 0 -22.5 -9.5t-9.5 -22.5t9.5 -22.5t22.5 -9.5h512q13 0 22.5 9.5t9.5 22.5t-9.5 22.5t-22.5 9.5zM896 192h-512q-13 0 -22.5 -9.5
t-9.5 -22.5t9.5 -22.5t22.5 -9.5h512q13 0 22.5 9.5t9.5 22.5t-9.5 22.5t-22.5 9.5zM192 608zM128 608q0 26 19 45t45 19t45 -19t19 -45t-19 -45t-45 -19t-45 19t-19 45zM192 384zM128 384q0 26 19 45t45 19t45 -19t19 -45t-19 -45t-45 -19t-45 19t-19 45zM192 160zM128 160
q0 26 19 45t45 19t45 -19t19 -45t-19 -45t-45 -19t-45 19t-19 45z" />
    <glyph glyph-name="add1" unicode="&#x193;" 
d="M512 -112q-205 0 -350.5 145.5t-145.5 350.5t145.5 350.5t350.5 145.5t350.5 -145.5t145.5 -350.5t-145.5 -350.5t-350.5 -145.5zM512 818q-180 0 -307 -127t-127 -307t127 -307t307 -127t307 127t127 307t-127 307t-307 127zM714 354h-172v-172q0 -13 -8.5 -21.5
t-21.5 -8.5t-21.5 8.5t-8.5 21.5v172h-172q-13 0 -21.5 8.5t-8.5 21.5t8.5 21.5t21.5 8.5h172v172q0 13 8.5 21.5t21.5 8.5t21.5 -8.5t8.5 -21.5v-172h172q13 0 21.5 -8.5t8.5 -21.5t-8.5 -21.5t-21.5 -8.5z" />
    <glyph glyph-name="zizhi" unicode="&#x183;" horiz-adv-x="1111" 
d="M1047 72l-178 329q29 65 29 135q0 91 -45 168.5t-122 122t-168 44.5t-168 -44.5t-121.5 -122t-44.5 -168.5q0 -72 29 -138l-178 -326q-10 -18 2 -33q12 -16 31 -11l153 35l52 -146q7 -19 27 -20h2q18 0 27 16l155 290q18 -2 34 -2t32 2l159 -290q8 -16 26 -16h3
q19 1 26 20l52 146l153 -35q19 -5 30.5 11t2.5 33v0v0zM352 2l-38 107q-4 11 -14 16.5t-22 2.5l-112 -26l128 235q66 -89 173 -122l-115 -213v0zM290 536q0 114 80 194t193 80t193 -80t80 -193.5t-80 -193.5t-193 -80t-193 80t-80 193v0zM848 128q-11 3 -21 -2.5t-14 -16.5
l-39 -108l-117 214q109 32 177 124l128 -237l-114 26v0zM848 128z" />
    <glyph glyph-name="dongtaiyemianxiaotubiao03" unicode="&#x212;" 
d="M512 896l-399 -238l402 -240l398 238zM75 111l400 -239v480l-400 239v-480zM549 349v-477l400 239v477z" />
    <glyph glyph-name="huiyuanrenzheng" unicode="&#x151;" 
d="M851 834h-672q-2 0 -4 -0.5t-3.5 -2t-2.5 -2t-2 -2.5l-1.5 -3t-2.5 -4t-2 -4l-159 -283q0 -7 4.5 -16t9.5 -14l4 -5q465 -551 473 -559q6 -6 13 -5.5t12 4.5q2 3 125 143t245 278.5l122 138.5q10 19 10 35l-153 283q-10 18 -16 18v0zM799 570l-294 -459l-278 460h-71v89
l216 -1l175 -310l204 310h113v-89h-63h-2zM799 529z" />
    <glyph glyph-name="down" unicode="&#x109;" 
d="M792.5 410.5q-9.5 9.5 -22.5 9.5t-22 -10l-204 -203v561q0 13 -9.5 22.5t-22.5 9.5t-22.5 -9.5t-9.5 -22.5v-563l-234 235q-9 10 -22.5 10t-23 -9.5t-9.5 -22.5t10 -23l287 -289q5 -5 11 -7q6 -3 13 -3q17 0 26 15l255 254q9 9 9 22.5t-9.5 23zM864 -32h-704
q-13 0 -22.5 9.5t-9.5 22.5t9.5 22.5t22.5 9.5h704q13 0 22.5 -9.5t9.5 -22.5t-9.5 -22.5t-22.5 -9.5z" />
    <glyph glyph-name="lajitong" unicode="&#x157;" 
d="M776 -78h-523q-28 0 -48.5 20.5t-20.5 49.5v566q0 11 7.5 18.5t18 7.5t18 -7.5t7.5 -18.5v-566q0 -8 5.5 -13t12.5 -5h523q8 0 13 5t5 13v566q0 11 7.5 18.5t18.5 7.5t18.5 -7.5t7.5 -18.5v-566q0 -29 -20.5 -49.5t-49.5 -20.5zM903 707h-182q-26 0 -37 23l-32 64h-270
l-32 -64q-11 -23 -37 -23h-190q-11 0 -18.5 7.5t-7.5 18t7.5 18t18.5 7.5h184l32 64q12 23 38 23h280q26 0 38 -23l32 -64h176q10 0 17.5 -7.5t7.5 -18t-7.5 -18t-17.5 -7.5zM384 97q-11 0 -18.5 7.5t-7.5 17.5v436q0 11 7.5 18.5t18.5 7.5t18.5 -7.5t7.5 -18.5v-436
q0 -10 -7.5 -17.5t-18.5 -7.5zM645.5 97q-10.5 0 -18 7.5t-7.5 17.5v436q0 11 7.5 18.5t18 7.5t18 -7.5t7.5 -18.5v-436q0 -10 -7.5 -17.5t-18 -7.5z" />
    <glyph glyph-name="leaf" unicode="&#x214;" 
d="M692 442q0 12 -9 21t-21 9q-81 0 -149 -23.5t-121.5 -63t-110.5 -102.5q-9 -10 -9 -21q0 -12 9 -21t21 -9t21 9q13 11 35 33l31 31q64 58 126 82.5t147 24.5q12 0 21 9t9 21v0zM931 534q0 -44 -9 -90q-21 -105 -86 -179.5t-168 -125.5q-100 -50 -205 -50q-69 0 -134 22
q-7 2 -41 19.5t-45 17.5q-7 0 -18 -15t-21 -33t-24.5 -33t-28.5 -15t-24 5.5t-14.5 11.5t-12.5 19q-1 2 -3 5.5t-2.5 5t-1 4.5t-0.5 6q0 16 14.5 34t31.5 31t31.5 26.5t14.5 22.5q0 2 -6.5 17.5t-7.5 20.5q-4 24 -4 49q0 54 20.5 103t55.5 86t79.5 65t95.5 45q26 8 68 11.5
t84 4.5t83.5 3t76.5 11t54 27l13 13l14 14q14 13 13 9t17 7.5t20 2.5q18 0 33 -22t22.5 -52.5t11 -58t3.5 -44.5v-1zM931 534z" />
    <glyph glyph-name="weixin" unicode="&#x163;" 
d="M693 549q15 0 35 -2q-23 109 -127.5 181.5t-238.5 72.5q-98 0 -181 -40.5t-132 -111.5t-49 -156q0 -143 145 -245l-36 -109l127 64q6 -2 25 -5.5t27 -5t22.5 -4t26.5 -3t25 -0.5q16 0 34 1q-11 38 -11 76q0 119 89.5 203t218.5 84zM498 647q21 0 33.5 -12.5t12.5 -33
t-12.5 -33t-33.5 -12.5t-37.5 13t-16.5 32.5t16.5 32.5t37.5 13zM245 556q-22 0 -38.5 13t-16.5 32.5t16.5 32.5t38.5 13q20 0 32.5 -12.5t12.5 -33t-12.5 -33t-32.5 -12.5zM1024 266q0 71 -43 132t-113.5 96t-151.5 35q-129 0 -218.5 -77t-89.5 -186t89.5 -186t218.5 -77
q37 0 109 18l99 -54l-27 90q127 96 127 209zM616 312q-13 0 -24.5 11t-11.5 24.5t11.5 25t24.5 11.5q20 0 33 -11t13 -25.5t-13 -25t-33 -10.5zM815 312q-13 0 -24.5 11t-11.5 24.5t11.5 25t24.5 11.5q20 0 33 -11t13 -25.5t-13 -25t-33 -10.5z" />
    <glyph glyph-name="xuanzhonggou" unicode="&#x197;" 
d="M64 314l293 -291l602 605l-118 119l-485 -485l-174 171z" />
    <glyph glyph-name="ditu" unicode="&#x178;" 
d="M506 194l-16 14q-28 26 -50 49q-62 65 -110 140q-72 114 -69 197q5 100 76 168q72 70 175 70q51 0 98.5 -19.5t83.5 -55.5q69 -69 68 -166v-10q-1 -13 -4 -27q-12 -68 -50 -132q-25 -41 -69 -92q-38 -47 -72 -77q-12 -13 -20 -20zM512 791q-86 0 -146 -58t-64 -141
q-3 -70 63 -173q45 -71 105 -134q17 -18 35 -35l13 12q8 8 21 20v1q32 28 68 73h1q41 49 65 87q34 57 45 118v1q2 11 3 22v0v8q1 79 -56 137q-63 62 -153 62zM512 494q-43 0 -73.5 29.5t-30.5 71t30.5 70.5t73.5 29t73 -29t30 -70.5t-30 -71t-73 -29.5zM512 653
q-26 0 -44.5 -17t-18.5 -41.5t18.5 -42t44.5 -17.5t44 17.5t18 42t-18 41.5t-44 17zM947 560l-137 -48l12 -39l97 34v-450l-272 -71l-286 77l-256 -62v439l99 67l-27 31l-113 -75v0v0v-509h41v0l256 64l286 -81l313 90v0v499z" />
    <glyph glyph-name="creative" unicode="&#x137;" 
d="M576 -93h-128q-53 0 -90.5 37.5t-37.5 90.5v56q0 33 -17 76.5t-39 68.5q-4 4 -9 10.5t-17.5 26t-21.5 40t-16.5 51.5t-7.5 62q0 87 43 161t116.5 116.5t160.5 42.5t160.5 -42.5t116.5 -116.5t43 -161q0 -31 -7.5 -62t-16.5 -51.5t-21.5 -40t-17.5 -26t-9 -10.5
q-22 -25 -39 -68.5t-17 -76.5v-56q0 -53 -37.5 -90.5t-90.5 -37.5zM512 682q-106 0 -181 -75t-75 -181q0 -38 15 -76t24.5 -51.5t15.5 -19.5q31 -33 52 -88t21 -100v-56q0 -26 19 -45t45 -19h128q26 0 45 19t19 45v56q0 45 21 100t52 88q7 8 16 20.5t24 50.5t15 76
q0 106 -75 181t-181 75zM640 320q-23 0 -30 22l-16 47l-59 -60q-10 -9 -23 -9t-23 9l-59 60l-16 -47q-4 -13 -16 -19t-24.5 -1.5t-18.5 16.5t-1 24l32 96q5 17 22.5 21t30.5 -8l73 -74l73 74q13 12 30.5 8t22.5 -21l32 -96q5 -12 -1 -24t-19 -16q-5 -2 -10 -2zM864 640
q-15 0 -24 10t-8.5 23.5t10.5 21.5l33 30q10 9 23 8t22 -10.5t8 -23t-10 -22.5l-33 -29q-9 -8 -21 -8zM160 640q-12 0 -21 8l-33 29q-9 9 -10 22.5t8 23t22 10.5t23 -8l33 -30q10 -8 10.5 -21.5t-8.5 -23.5t-24 -10zM512 768q-13 0 -22.5 9.5t-9.5 22.5v32q0 13 9.5 22.5
t22.5 9.5t22.5 -9.5t9.5 -22.5v-32q0 -13 -9.5 -22.5t-22.5 -9.5zM576 32h-128q-13 0 -22.5 9.5t-9.5 22.5t9.5 22.5t22.5 9.5h128q13 0 22.5 -9.5t9.5 -22.5t-9.5 -22.5t-22.5 -9.5z" />
    <glyph glyph-name="wujiaoxing" unicode="&#x166;" 
d="M990.5 485.5q-9.5 28.5 -39.5 32.5l-273 48l-123 247q-13 26 -43 26t-43 -26l-123 -247l-273 -50q-30 -4 -39 -33q-9 -28 12 -49l198 -183l-52 -266q-5 -30 20 -47q12 -9 28 -9q12 0 22 5l250 122l248 -122q11 -5 23 -5q15 0 28 9q24 18 19 47l-50 266l198 185
q22 21 12.5 49.5z" />
    <glyph glyph-name="meishi" unicode="&#x179;" 
d="M565 307zM901 174h-784q-36 1 -61.5 26.5t-25.5 61.5q0 19 7 35t18.5 28t27.5 19l12 4q21 108 95 192q73 84 176 121q2 55 42 95q41 42 101 42q60 -1 102 -42q40 -39 43 -95q102 -37 175 -121t95 -192q22 -6 39 -23q26 -26 26 -62.5t-26 -62.5t-62 -26zM122 287
q-9 0 -13 -2q-5 -2 -8.5 -5t-5 -8t-1.5 -10q0 -10 7 -17t17 -7h783q10 0 17 7t7 18q0 10 -7 17t-17 7h-28l-8 27q-15 104 -84 184q-70 80 -170 109l-23 7v31q2 7 2 9q0 33 -24 56q-23 24 -56.5 24t-56.5 -23t-23 -57q0 -4 1 -13l2 -26l-25 -8q-101 -29 -170 -109t-84 -184
l-4 -27h-28zM64 128h896v-64h-896v64zM284 354l-60 24q19 46 47.5 83t53 56.5t51.5 33t38 17t18 4.5l13 -62q-6 -1 -14 -4t-29 -14t-40 -26.5t-41 -45t-37 -66.5z" />
    <glyph glyph-name="jiudian" unicode="&#x142;" 
d="M896 0v416q0 40 -28 68t-68 28h-160v224q0 40 -28 68t-68 28h-320q-40 0 -68 -28t-28 -68v-736h-64v-64h768h64h64v64h-64zM192 0v736q0 13 9.5 22.5t22.5 9.5h320q13 0 22.5 -9.5t9.5 -22.5v-736h-384zM640 0v448h160q13 0 22.5 -9.5t9.5 -22.5v-416h-192zM288 640h64
v-64h-64v64zM416 640h64v-64h-64v64zM288 512h64v-64h-64v64zM416 512h64v-64h-64v64zM288 384h64v-64h-64v64zM416 384h64v-64h-64v64z" />
    <glyph glyph-name="anquanbaozhang" unicode="&#x181;" 
d="M506 -119l-40 22l-7 4q-184 98 -238 153q-31 31 -53 68.5t-28 55.5t-9 32l-1 9l-2 465l380 124l381 -124l-2 -467q-3 -16 -9 -36t-28 -57.5t-54 -69.5q-66 -67 -260 -163zM192 644l2 -416q2 -9 6 -22t22 -44t44 -57q48 -47 223 -142l18 -9v0q27 13 61.5 31.5t95.5 56
t87 63.5q26 27 44.5 59t22.5 44.5t5 20.5l2 415l-317 102zM544 352h192v64h-192v192h-64v-192h-192v-64h192v-192h64v192z" />
    <glyph glyph-name="01" unicode="&#x251;" 
d="M65 243v283h56l116 -189v189h53v-283h-57l-115 185v-185h-53zM350 243v283h210v-48h-152v-63h142v-47h-142v-77h158v-48h-216zM655 243l-68 283h58l43 -194l52 194h68l50 -198l43 198h58l-69 -283h-61l-56 212l-56 -212h-62z" />
    <glyph glyph-name="pengyouquan" unicode="&#x213;" 
d="M627 663v1h-1zM512 832q-25 0 -51 -3q-59 -7 -116 -29q301 -298 309 -309v317l-27 9q-57 15 -115 15v0zM627 663l-1 1h1v-1v0zM788 502h1l-1 1v-1zM826 703q-17 17 -38 33q-47 38 -102 61q2 -423 0 -437l224 225q-6 13 -13 25q-30 52 -71 93v0zM788 502v1l1 -1h-1v0z
M789 268v1v-1v0zM925 550q-298 -301 -309 -309h317q5 13 9 27q15 57 15 116q0 24 -3 50q-7 60 -29 116v0zM789 268v0v1v-1v0zM625 105v0v-1v1zM483 207l225 -224q13 6 25 13q51 30 92 71q17 17 34 38q37 47 61 102q1 0 -23.5 0h-61.5h-83t-91.5 -0.5t-84.5 -0.5t-64.5 0.5
t-28.5 0.5v0zM625 105v-1v1v0v0zM395 105h1h-1v0zM368 278v-318q13 -4 27 -8q57 -15 115 -15q25 0 51 3q60 6 116 29l-17 16.5t-43.5 43t-59 58.5t-65 64.5l-60 60t-45.5 46t-19 20.5v0zM395 105v0h1h-1v0zM233 268v1v-1v0zM336 410l-224 -224q5 -12 13 -25q29 -52 71 -93
q17 -17 38 -33q47 -38 102 -61l-0.5 110t-0.5 207t1 119v0zM233 268v0v1v-1v0zM233 500v0v0v0zM80 500q-15 -57 -15 -115q0 -25 3 -51q7 -60 29 -115q298 301 309 309h-317q-5 -13 -9 -28v0zM233 500v0v0v0v0zM395 662v0v0v0zM287 771q-51 -30 -92 -71q-17 -17 -34 -38
q-37 -47 -61 -103h437l-225 225q-13 -7 -25 -13v0zM395 662v0v0v0v0zM395 662z" />
    <glyph glyph-name="bi" unicode="&#x156;" 
d="M287 -128h-255q-13 0 -22.5 9.5t-9.5 22.5v254q0 14 9 23l640 642q9 9 23 9v0q13 0 22 -9l257 -258q9 -9 9 -22.5t-9 -22.5l-128 -128q-9 -9 -23 -9v0q-13 0 -22 9l-128 128q-9 9 -9 22.5t9 23t22.5 9.5t22.5 -10l105 -105l83 83l-211 211l-608 -609v-209h210l374 375
q9 10 22.5 10t23 -9.5t9.5 -23t-10 -22.5l-383 -385q-9 -9 -23 -9z" />
    <glyph glyph-name="link" unicode="&#x149;" 
d="M768 16h-299q-106 0 -181 76t-75 183.5t75 184t181 76.5h171v-87h-171q-70 0 -120 -50.5t-50 -122.5t50 -122.5t120 -50.5h299q71 0 121 50.5t50 122.5q0 82 -63 134l19 91q59 -34 94 -94t35 -131q0 -108 -75 -184t-181 -76v0zM806 446q3 -1 5 -1v-2l-5 2v1v0v0zM806 445
q-16 -91 -87 -151.5t-164 -60.5h-171v86h171q70 0 120 50.5t50 122.5t-50 122.5t-120 50.5h-299q-71 0 -121 -50.5t-50 -122.5q0 -81 64 -133l-20 -92q-59 34 -94 94t-35 131q0 108 75 184t181 76h299q94 0 165 -62t87 -154h-7v-3q1 0 3.5 -0.5t3.5 -0.5q4 -22 4 -40
q0 -22 -5 -46l-6 3l6 -4v0zM811 536v-5q-1 0 -2 0.5t-2 0.5v2v2h4v0z" />
    <glyph glyph-name="externallink" unicode="&#x150;" 
d="M918 767l-256 1q-17 0 -20 -8.5t8 -19.5l96 -96l-310 -310q-19 -19 -19 -45.5t18.5 -45.5t45 -19t45.5 19l310 310l95 -96q11 -11 19.5 -8t8.5 20l-1 257q0 17 -11.5 29t-28.5 12zM783 320q-20 0 -34 -13.5t-14 -33.5v0v-177q0 -27 -18.5 -45.5t-45.5 -18.5h-448
q-27 0 -45.5 18.5t-18.5 45.5v448q0 27 18.5 45.5t45.5 18.5h306v0q19 1 32 15t13 33t-13 33t-32 15v0h-338q-53 0 -90.5 -37.5t-37.5 -90.5v-512q0 -53 37.5 -90.5t90.5 -37.5h512q53 0 90.5 37.5t37.5 90.5v209v0q0 20 -14 33.5t-34 13.5z" />
    <glyph glyph-name="shangwuyouxue" unicode="&#x224;" 
d="M571 450q-29 8 -59 8t-59 -8v178h-157v-89l76 -132q-34 -29 -54 -70.5t-20 -87.5q0 -87 62.5 -148t151.5 -61t151.5 61t62.5 148q0 50 -23 94t-63 73l88 121v91h-157v-178v0zM649 249q0 -56 -40 -95t-97 -39t-97 39t-40 94.5t40 95t97 39.5t97 -39.5t40 -94.5v0zM235 728
v-61h554v61h-554zM507 374l-27 -82h-88q-4 0 -5 -3.5t2 -5.5l71 -50l-27 -83q-1 -3 1.5 -5t5.5 0l72 51l72 -51q1 -1 2.5 -1t2.5 1q3 2 2 5l-27 83l71 50q3 2 2 5.5t-5 3.5h-88l-27 82q-1 3 -5 3t-5 -3v0zM507 374z" />
    <glyph glyph-name="messageokicon" unicode="&#x205;" 
d="M938.5 412q-11.5 0 -20 -8t-8.5 -20q0 -108 -53 -200t-145 -145t-200 -53t-200 53t-145 145t-53 200t53 200t145 145t200 53q133 0 239 -79q9 -8 21 -6t19 11.5t5.5 21t-11.5 18.5q-121 91 -273 91q-92 0 -176.5 -36t-145.5 -97t-97 -145.5t-36 -176.5t36 -176.5
t97 -145.5t145.5 -97t176.5 -36t176.5 36t145.5 97t97 145.5t36 176.5q0 12 -8.5 20t-20 8zM248 433q-9 8 -20.5 8t-20 -8.5t-8.5 -20t8 -20.5l228 -227q8 -9 20 -9t20 9l484 483q8 9 8 20.5t-8.5 20t-20 8.5t-19.5 -8l-464 -464z" />
    <glyph glyph-name="jiudianline" unicode="&#x172;" 
d="M559 -45q0 -8 5.5 -13.5t13.5 -5.5t13.5 5.5t5.5 13.5v447h305v-447q0 -8 5.5 -13.5t13.5 -5.5t13 5.5t5 13.5v485h-380v-485zM78 824l1 -869q0 -8 5.5 -13.5t12.5 -5.5v0q8 0 13.5 5.5t5.5 13.5l-1 831h354l1 -831q0 -8 5.5 -13.5t13.5 -5.5v0q8 0 13.5 5.5t4.5 13.5
v869h-429zM649 -45q0 -8 5.5 -13.5t13 -5.5t13 5.5t5.5 13.5v172h126v-172q0 -8 5.5 -13.5t13 -5.5t13 5.5t5.5 13.5v209h-200v-209zM578 506h343q8 0 13 5.5t5 13t-5 13t-13 5.5h-343q-8 0 -13.5 -5.5t-5.5 -13t5.5 -13t13.5 -5.5zM263 681h-94q-8 0 -13.5 -5.5t-5.5 -13
t5.5 -13t13.5 -5.5h94q8 0 13.5 5.5t5.5 13t-5.5 13t-13.5 5.5zM416 681h-94q-8 0 -13.5 -5.5t-5.5 -13t5.5 -13t13.5 -5.5h94q8 0 13.5 5.5t5.5 13t-5.5 13t-13.5 5.5zM263 463h-94q-8 0 -13.5 -5.5t-5.5 -13.5t5.5 -13.5t13.5 -5.5h94q8 0 13.5 5.5t5.5 13.5t-5.5 13.5
t-13.5 5.5zM416 463h-94q-8 0 -13.5 -5.5t-5.5 -13.5t5.5 -13.5t13.5 -5.5h94q8 0 13.5 5.5t5.5 13.5t-5.5 13.5t-13.5 5.5zM263 246h-94q-8 0 -13.5 -5.5t-5.5 -13t5.5 -13t13.5 -5.5h94q8 0 13.5 5.5t5.5 13t-5.5 13t-13.5 5.5zM416 246h-94q-8 0 -13.5 -5.5t-5.5 -13
t5.5 -13t13.5 -5.5h94q8 0 13.5 5.5t5.5 13t-5.5 13t-13.5 5.5z" />
    <glyph glyph-name="iconfont32" unicode="&#x199;" 
d="M512 896q-139 0 -257 -68.5t-186.5 -186.5t-68.5 -257t68.5 -257t186.5 -186.5t257 -68.5t257 68.5t186.5 186.5t68.5 257t-68.5 257t-186.5 186.5t-257 68.5zM512 -80q-192 0 -328 136t-136 328t136 328t328 136t328 -136t136 -328t-136 -328t-328 -136zM386.5 592
q-13.5 0 -22.5 -9.5t-9 -22.5v-352q0 -13 9 -22.5t22.5 -9.5t23 9.5t9.5 22.5v352q0 13 -9.5 22.5t-23 9.5zM637.5 592q-13.5 0 -23 -9.5t-9.5 -22.5v-352q0 -13 9.5 -22.5t23 -9.5t22.5 9.5t9 22.5v352q0 13 -9 22.5t-22.5 9.5z" />
    <glyph glyph-name="jikediancanicon15" unicode="&#x184;" 
d="M513 -66q-135 0 -248 75l30 29q101 -63 218 -63q112 0 206 54.5t148.5 149t54.5 205.5t-54.5 205.5t-149 149t-205.5 54.5t-205 -54.5t-149 -149t-55 -205.5q0 -128 73 -232l-29 -30q-85 118 -85 262q0 92 36 175t96 143.5t143.5 96t175 35.5t175 -35.5t143.5 -96
t95.5 -143.5t35.5 -175t-35.5 -175t-95.5 -143.5t-143.5 -96t-175.5 -35.5v0zM329 425q-17 0 -29 12t-12 29t12 29t29 12t29 -12t12 -29t-12 -29t-29 -12v0zM657 466q0 17 11.5 29t28.5 12t29 -12t12 -29t-12 -29t-29 -12t-28.5 12t-11.5 29v0zM513 139q-80 0 -144 46.5
t-88 120.5q17 5 39 11q21 -61 74 -99.5t119.5 -38.5t119 38.5t73.5 99.5q23 -6 40 -11q-25 -74 -88.5 -120.5t-144.5 -46.5v0zM513 139zM513 -72q-137 0 -251 75l-7 5l39 38l5 -2q98 -63 214 -63q110 0 202.5 54t146.5 147t54 202t-54 202t-146.5 147t-202 54t-202 -54
t-146.5 -147t-54 -202q0 -126 71 -229l3 -4l-38 -39l-4 7q-86 119 -86 265q0 93 36 177.5t97.5 145.5t146 97t177 36t177 -36t145.5 -97t97.5 -145.5t36.5 -177.5t-36.5 -177.5t-97.5 -145.5t-145.5 -97t-177.5 -36zM276 10q108 -70 237 -70q90 0 172.5 35.5t142 95
t94.5 141.5t35 172t-35 172t-94.5 141.5t-142 95t-172.5 35.5t-172 -35.5t-141.5 -95t-94.5 -141.5t-35 -172q0 -138 79 -252l20 20q-71 105 -71 232q0 113 55.5 208.5t151.5 151t208.5 55.5t208 -55.5t151.5 -151t56 -208.5t-56 -208.5t-151.5 -151t-208.5 -55.5
q-117 0 -217 61zM513.5 132q-81.5 0 -147.5 47.5t-91 124.5l-2 6l6 2q17 5 40 11l5 1l2 -5q21 -60 72.5 -96.5t115 -36.5t115 36.5t71.5 96.5l2 6l6 -2q23 -5 40 -11l6 -2l-2 -6q-26 -77 -91.5 -124.5t-147 -47.5zM289 302q26 -71 87.5 -114t137 -43t137 43t87.5 114
q-14 4 -28 7q-23 -61 -77 -98.5t-119.5 -37.5t-119.5 37.5t-78 98.5q-13 -3 -27 -7zM697.5 418q-19.5 0 -33.5 14t-14 33.5t14 33.5t33.5 14t33.5 -14t14 -33.5t-14 -33.5t-33.5 -14zM697.5 500q-14.5 0 -24.5 -10t-10 -24t10 -24.5t24.5 -10.5t24.5 10.5t10 24.5t-10 24
t-24.5 10zM329.5 418q-19.5 0 -33.5 14t-14 33.5t14 33.5t33.5 14t33.5 -14t14 -33.5t-14 -33.5t-33.5 -14zM329.5 500q-14.5 0 -24.5 -10t-10 -24t10 -24.5t24.5 -10.5t24.5 10.5t10 24.5t-10 24t-24.5 10z" />
    <glyph glyph-name="mandun" unicode="&#x182;" 
d="M681 -27h-333q-12 0 -20.5 -8.5t-8.5 -20.5t8.5 -20.5t20.5 -8.5h333q12 0 20.5 8.5t8.5 20.5t-8.5 20.5t-20.5 8.5zM981 426l-4 25h-925l-4 -25q-5 -31 -5 -62q0 -107 54 -201.5t150 -155.5l7 -5h8h505h8l7 5q96 61 150 155.5t54 201.5q0 31 -5 62zM758 60h-487
q-80 54 -125 134t-45 170q0 14 2 29h824q1 -15 1 -29q0 -90 -45 -170t-125 -134zM499 609q12 -11 12 -27t-12 -27q-8 -8 -8 -20t8.5 -20.5t20.5 -8.5t20 8q29 28 29 68t-29 68v0q-11 12 -11 28t11 27q9 8 9 20t-8.5 20.5t-20.5 8.5t-21 -8q-28 -28 -28 -68t28 -69v0z" />
    <glyph glyph-name="xiaolvdashitubiao37" unicode="&#x192;" 
d="M665 525zM833 83v-165l-164 100q-36 -6 -70 -6q-82 0 -155 29.5t-127 81.5q27 -1 35 -1q22 0 48 2q88 -61 199 -61q37 0 76 8l57 -37h-1l43 -29v103q67 38 106.5 99.5t39.5 132.5q0 91 -63 164q5 31 5 55q0 3 -2 25q56 -46 87 -108t31 -132q0 -78 -39 -146.5t-106 -114.5
v0zM425 187q-34 0 -70 6l-164 -100v165q-67 46 -106 114.5t-39 146.5q0 90 50.5 166.5t138 120.5t190 44t190 -44t138 -120.5t50.5 -166.5t-50.5 -166.5t-138 -121t-189.5 -44.5v0zM425 792q-88 0 -161.5 -37t-116.5 -101t-43 -139q0 -71 39.5 -132.5t106.5 -99.5v-103
l43 28h-1l57 38q39 -8 76 -8q87 0 160.5 37t116.5 101t43 139t-43 139t-116.5 101t-160.5 37v0zM614 471q-18 0 -31 13t-13 31t13 31t31 13t31 -13t13 -31t-13 -31t-31 -13v0zM439 471q-18 0 -31 13t-13 31t13 31t31 13t31 -13t13 -31t-13 -31t-31 -13v0zM264 471
q-18 0 -30.5 13t-12.5 31t12.5 31t30.5 13t31 -13t13 -31t-13 -31t-31 -13v0zM264 471z" />
    <glyph glyph-name="calendar" unicode="&#x159;" 
d="M128 -33q-32 0 -54.5 22.5t-22.5 55.5v700l-25 -26h870q32 0 54.5 -23t22.5 -55v-584q0 -10 7.5 -18t18 -8t18 8t7.5 18v584q0 54 -37.5 92t-90.5 38h-870q-11 0 -18.5 -7.5t-7.5 -18.5v-700q0 -54 37.5 -92t90.5 -38h755q11 0 18.5 7.5t7.5 18t-7.5 18.5t-18.5 8h-755z
M282 641q0 -11 7.5 -18.5t18 -7.5t18 7.5t7.5 18.5v195q0 10 -7.5 18t-18 8t-18 -8t-7.5 -18v-195zM717 654q0 -11 7.5 -18.5t18 -7.5t18 7.5t7.5 18.5v195q0 10 -7.5 18t-18 8t-18 -8t-7.5 -18v-195zM333 485q10 0 17.5 8t7.5 18.5t-7.5 18t-17.5 7.5h-141
q-11 0 -18.5 -7.5t-7.5 -18t7.5 -18.5t18.5 -8h141zM614 485q11 0 18.5 8t7.5 18.5t-7.5 18t-18.5 7.5h-140q-11 0 -18.5 -7.5t-7.5 -18t7.5 -18.5t18.5 -8h140zM870 485q11 0 18.5 8t7.5 18.5t-7.5 18t-18.5 7.5h-140q-11 0 -18.5 -7.5t-7.5 -18t7.5 -18.5t18.5 -8h140z
M333 330q10 0 17.5 7.5t7.5 18t-7.5 18.5t-17.5 8h-141q-11 0 -18.5 -8t-7.5 -18.5t7.5 -18t18.5 -7.5h141zM614 330q11 0 18.5 7.5t7.5 18t-7.5 18.5t-18.5 8h-140q-11 0 -18.5 -8t-7.5 -18.5t7.5 -18t18.5 -7.5h140zM870 330q11 0 18.5 7.5t7.5 18t-7.5 18.5t-18.5 8h-140
q-11 0 -18.5 -8t-7.5 -18.5t7.5 -18t18.5 -7.5h140zM333 174q10 0 17.5 7.5t7.5 18.5t-7.5 18.5t-17.5 7.5h-141q-11 0 -18.5 -7.5t-7.5 -18.5t7.5 -18.5t18.5 -7.5h141zM614 174q11 0 18.5 7.5t7.5 18.5t-7.5 18.5t-18.5 7.5h-140q-11 0 -18.5 -7.5t-7.5 -18.5t7.5 -18.5
t18.5 -7.5h140zM870 174q11 0 18.5 7.5t7.5 18.5t-7.5 18.5t-18.5 7.5h-140q-11 0 -18.5 -7.5t-7.5 -18.5t7.5 -18.5t18.5 -7.5h140z" />
    <glyph glyph-name="ziyuan" unicode="&#x235;" 
d="M512 -64q-91 0 -174 35q-80 34 -142 95.5t-96 141.5q-35 83 -35 174t35 174q34 80 96 142t142 96q83 35 174 35t174 -35q80 -34 142 -96t96 -142q35 -83 35 -174t-35 -174q-34 -80 -96 -141.5t-142 -95.5q-83 -35 -174 -35zM512 747q-73 0 -139.5 -27.5t-118.5 -79
t-79.5 -118.5t-27.5 -140t27.5 -139.5t79.5 -118t118.5 -79.5t139.5 -28t139.5 28t118.5 79.5t79.5 118t27.5 139.5t-27.5 140t-79.5 118.5t-118.5 79t-139.5 27.5zM567 419q3 1 8.5 2.5t19.5 5t25.5 4.5t22 -1.5t13.5 -10.5q3 -11 20 -23.5t34 -29t22 -36.5q3 -11 9.5 -33
t9 -33t3 -26t-4.5 -26q-1 -4 -9 -24t-12 -28t-14 -19.5t-23 -17.5q-1 -1 -10.5 -5.5t-15.5 -7.5t-18.5 -8t-21.5 -8.5t-21 -7t-21 -5t-18 -1.5t-15 3q-18 8 -27.5 54t-8.5 69q1 11 -0.5 26t-1.5 23t5.5 18t18.5 18q26 16 26.5 29.5t-11.5 40.5q-5 19 -1.5 32t10.5 19z
M373 367q1 1 0 14t2 33.5t7.5 40t17.5 35t32 17.5q29 2 59.5 8.5t47 10.5t21.5 2q4 -2 9.5 6t10 21t7.5 26.5t2 24.5t-6 14q-1 1 -16 10.5t-26 15t-28.5 13t-36 10.5t-35.5 0q-28 -5 -49.5 -10t-49 -14t-45 -23t-23.5 -33q-3 -11 -11.5 -33t-11 -32t-2 -28.5t6.5 -37.5
q15 -40 32.5 -69.5t32.5 -39.5q15 -11 31 -8t21 26z" />
    <glyph glyph-name="shaixuan" unicode="&#x161;" 
d="M597 -60v1l-1 1q-10 9 -10 25v55v380q0 17 12 30q56 55 250 250q12 11 16 24q6 22 -7.5 41t-36.5 20h-5h-606q-37 0 -48 -32q-8 -24 8 -45q4 -6 11 -12q150 -151 238 -239q12 -12 12 -29v-259q0 -21 -16 -30q-15 -7 -29 1t-16 24v7v244q0 5 -3 8l-235 235q-33 33 -33 78
q0 38 22.5 67.5t58.5 38.5q14 4 30 4h606q64 0 97 -55q16 -27 14 -60.5t-21 -58.5q-7 -9 -15 -16q-130 -131 -240 -240q-3 -4 -3 -9v-414q0 -24 -12 -35h-38z" />
    <glyph glyph-name="shalou2" unicode="&#x203;" 
d="M918 -1h-7h-53v83q0 95 -47 176.5t-127 128.5q80 47 127 128t47 176v104h54h6q17 0 28.5 11.5t11.5 28t-11.5 28t-28.5 11.5h-6h-818h-7q-16 0 -27.5 -11.5t-11.5 -28t11.5 -28t27.5 -11.5h7h57v-104q0 -95 47 -176t127 -128q-80 -47 -127 -128.5t-47 -176.5v-83h-57h-7
q-17 0 -28.5 -11.5t-11.5 -27.5t11.5 -28t28.5 -12h7h817h7q16 0 27.5 12t11.5 28t-11.5 27.5t-27.5 11.5zM780 -1h-551v83q0 94 58 168.5t149 97.5q7 2 14 6v0l1 1h1q1 1 2 3v0q1 0 2 1v0q0 1 1 1v1q1 0 1 1v0l1 1v0l3 3v1q0 1 0.5 1t0.5 0.5v0.5q0 1 1 2v0q5 12 2 25
t-13 21v0l-1 0.5l-1 0.5v0q-6 5 -14 7q-91 23 -149.5 97.5t-58.5 168.5v104h551v-104q0 -94 -58 -168.5t-150 -97.5q-15 -4 -23 -16t-7 -26v-1v-1l1 -1v-1v-1v-1q0 -1 1 -2v0v-2v0l1 -1v-1l1 -1v0q1 -4 4 -7v0l1 -1v0q0 -1 0.5 -1.5t1 -0.5t0.5 -0.5t1 -0.5v0q5 -6 13 -9v0
q1 0 1.5 -0.5l0.5 -0.5h0.5h0.5h2q92 -24 150 -98t58 -169v-83z" />
    <glyph glyph-name="shouji" unicode="&#x201;" 
d="M512 100q-20 0 -34 -14t-14 -34t14 -34t34 -14t34 14t14 34t-14 34t-34 14zM749 854h-474q-30 0 -51.5 -21t-21.5 -51v-796q0 -30 21.5 -51t51.5 -21h474q30 0 51 21t21 51v796q0 30 -21 51t-51 21zM275 806h474q10 0 17 -7t7 -17v-596h-522v596q0 10 7 17t17 7zM749 -38
h-474q-10 0 -17 7t-7 17v148h522v-148q0 -10 -7 -17t-17 -7z" />
    <glyph glyph-name="menpiao" unicode="&#x222;" 
d="M556.5 550.5q-9.5 9.5 -22.5 9.5t-22 -10l-178 -177q-9 -9 -9 -22t9.5 -22.5t22.5 -9.5t22 9l177 178q10 9 10 22t-9.5 22.5zM645 417l-177 -177q-10 -10 -10 -23t9.5 -22t22.5 -9t22 9l178 178q9 9 9 22t-9.5 22t-22.5 9t-22 -9zM978 528l-61 61q-18 19 -44 19
q-15 0 -28 -7q-18 -9 -35 -9q-33 0 -56 23t-23 56q0 17 9 34q9 19 6 39t-18 34l-61 61q-27 27 -66 27t-67 -27l-488 -488q-28 -28 -28 -67t28 -67l61 -61q18 -18 44 -18q15 0 28 6q17 9 34 9q33 0 56 -23t23 -56q0 -17 -9 -34q-8 -18 -5 -38t17 -34l62 -61q27 -28 66 -28
t67 28l488 488q28 28 28 67t-28 66v0zM934 439l-489 -488q-9 -9 -22 -9t-22 9l-61 61q15 31 15 62q0 59 -41.5 100.5t-100.5 41.5q-31 0 -62 -15l-61 61q-9 9 -9 22t9 22l489 488q9 10 22 10t22 -10l61 -60q-16 -31 -16 -63q0 -59 41.5 -100.5t100.5 -41.5q32 0 63 16
l61 -61q9 -9 9 -22t-9 -23v0z" />
    <glyph glyph-name="zhibo" unicode="&#x248;" 
d="M512 845q94 0 179 -36q83 -35 147 -99t99 -147q36 -85 36 -179t-36 -179q-35 -83 -99 -147t-147 -99q-85 -36 -179 -36t-179 36q-83 35 -147 99t-99 147q-36 85 -36 179t36 179q35 83 99 147t147 99q85 36 179 36zM512 896q-104 0 -199 -40.5t-163.5 -109t-109 -163.5
t-40.5 -199t40.5 -199t109 -163.5t163.5 -109t199 -40.5t199 40.5t163.5 109t109 163.5t40.5 199t-40.5 199t-109 163.5t-163.5 109t-199 40.5v0zM320 640l512 -256l-512 -255v511z" />
    <glyph glyph-name="faxian" unicode="&#x217;" 
d="M512 715q-69 0 -161 -38t-168.5 -90t-129.5 -109.5t-53 -93.5t53 -93.5t129.5 -109.5t168.5 -90t161 -38t161 38t168.5 90t129.5 109.5t53 93.5t-53 93.5t-129.5 109.5t-168.5 90t-161 38zM512 152q-93 0 -158.5 68t-65.5 164t65.5 164t158.5 68t158.5 -68t65.5 -164
t-65.5 -164t-158.5 -68zM512 550q-66 0 -113 -48.5t-47 -117.5t47 -117.5t113 -48.5t113 48.5t47 117.5t-47 117.5t-113 48.5z" />
    <glyph glyph-name="zhifubao" unicode="&#x165;" 
d="M1024 195v504q0 81 -58 138.5t-139 57.5h-630q-81 0 -139 -57.5t-58 -138.5v-630q0 -82 58 -139.5t139 -57.5h630q72 0 126.5 46t67.5 116q-283 122 -397 176q-71 -86 -147.5 -129.5t-177.5 -43.5q-105 0 -169 56.5t-55 137.5q2 24 9.5 46t26.5 47t46.5 42t74.5 26t107 3
q23 -2 43 -4.5t40 -6.5t32.5 -7t33.5 -9.5t30.5 -9.5t35 -11.5t35.5 -11.5q35 64 57 139h-398v40h197v70h-240v44h240v102q0 2 1 4.5t6 7t13 4.5h98v-118h256v-44h-256v-70h209q-29 -116 -85 -213q27 -10 111 -36.5t155 -48.5l71 -21v0v0zM284 104q-36 0 -65 7.5t-46.5 19
t-30.5 26t-17.5 29.5t-7 28.5t0.5 23.5q7 34 42.5 62.5t92.5 28.5q131 0 284 -75q-55 -72 -120 -111t-133 -39v0z" />
    <glyph glyph-name="gongtongguanzhu" unicode="&#x170;" 
d="M654 232q8 -6 27 -6q12 0 19 9.5t8 18t0 11.5q-5 17 -17 25v0q-48 33 -103 51q65 33 104 96.5t39 138.5q0 110 -78 188t-188 78t-187.5 -78t-77.5 -188q0 -75 39 -138.5t104 -96.5q-123 -40 -201 -144.5t-79 -236.5v-1.5v-1.5q1 -10 10 -19.5t19 -9.5q11 0 23.5 8.5
t13.5 17.5q0 145 94.5 241t239.5 96q102 0 191 -60v1v0v0zM265 576q0 83 58.5 141.5t141.5 58.5t142 -58.5t59 -141.5t-59 -141.5t-142 -58.5t-141.5 58.5t-58.5 141.5v0v0zM945 186q12 11 12.5 27.5t-11 28t-27.5 11t-28 -11.5l-176 -177l-61 60q-11 12 -27.5 12t-27.5 -11
t-11.5 -26.5t10.5 -26.5l87 -88q12 -11 30 -11t29 12l-2 -3l203 204v0v0z" />
    <glyph glyph-name="youxiandianshi" unicode="&#x173;" 
d="M847 804h-671q-39 0 -66 -28t-27 -67v-500q0 -40 27 -67.5t66 -27.5h310v-100h-184q-10 0 -17 -7.5t-7 -17.5t7 -17.5t17 -7.5h425q11 0 18 7.5t7 17.5t-7 17.5t-18 7.5h-192v124q0 11 -7 18t-17 7h-2.5h-2.5h-330q-19 0 -32 13.5t-13 32.5v500q0 19 13 32.5t32 13.5h671
q19 0 32 -13.5t13 -32.5v-500q0 -19 -13 -32.5t-32 -13.5h-250q-11 0 -18 -7t-7 -17.5t7 -17.5t18 -7h250q39 0 66 27.5t27 67.5v500q0 39 -27 67t-66 28zM760 705h-493q-30 0 -51.5 -22t-21.5 -53v-336q0 -31 21.5 -53t51.5 -22h493q30 0 51.5 22t21.5 53v118
q0 10 -7.5 17.5t-17.5 7.5t-17 -7.5t-7 -17.5v-118q0 -11 -7 -18.5t-17 -7.5h-493q-10 0 -17 7.5t-7 18.5v336q0 11 7 18t17 7h493q10 0 17 -7t7 -18v-0.5v-1.5v-119q0 -11 7 -18t17 -7t17.5 7t7.5 18v119v1.5v0.5q0 31 -21.5 53t-51.5 22z" />
    <glyph glyph-name="bendishenghuo" unicode="&#x223;" 
d="M416 77q138 0 200 76l12 18v235h-422v-235l5 -10t18.5 -22.5t36.5 -29t61 -22.5t89 -10v0zM583 739q0 3 -1.5 7t-11 13.5t-24.5 14.5q-2 0 -14 4t-17.5 6t-17 6t-18 8t-14 9t-11.5 11.5t-6 13.5q-1 -2 -3.5 -5.5t-5.5 -15.5t-0.5 -25t15.5 -33t37 -41q2 -1 5 -4t8.5 -14
t7.5 -23.5t-3 -33t-18 -42.5q0 -1 6 3t15.5 11t21 17t21.5 22.5t18 27t11 30.5t-1 33v0zM769 171q22 1 44.5 11t39 23.5t30 27t20.5 23.5l7 9q37 57 45.5 112t-5 92.5t-33.5 67t-36 44t-18 14.5h-797v-403v-8.5t3 -21t7.5 -30t15 -33t25 -32t38 -24.5t51.5 -13h-94
q-19 0 -32.5 -14t-13.5 -33.5t13.5 -33t32.5 -13.5h610q20 0 33.5 13.5t13.5 33t-13.5 33.5t-33.5 14h-94q28 4 53 20.5t40.5 36t27 39.5t16 32t4.5 13v0zM675 171q0 -3 -0.5 -8t-8.5 -20.5t-21 -31t-42 -38t-68 -43.5h-235q-6 2 -15.5 6t-33.5 19t-42.5 32.5t-34 45.5
t-15.5 59v308h516v-329v0zM769 218v282h47q30 -16 43.5 -41t11.5 -51t-12 -53.5t-25.5 -51.5t-29.5 -43t-24.5 -30.5l-10.5 -11.5v0zM385 689q-2 1 -5 4t-10 11t-12 16t-8.5 19t-1.5 20t11.5 18t26.5 15l-37 -9q-4 -1 -9.5 -3t-18.5 -9.5t-19.5 -17.5t-5.5 -27t16 -37
q6 -7 14 -17.5t18.5 -36t4.5 -40.5q0 -1 7.5 5t16.5 16t16.5 21.5t7 25.5t-11.5 26v0zM385 689z" />
    <glyph glyph-name="icon" unicode="&#x216;" 
d="M832 -44h-645q-59 0 -78.5 35.5t12.5 85.5l281 444v223h-36q-14 0 -25 10.5t-11 25.5t11 25.5t25 10.5h287q14 0 24.5 -10.5t10.5 -25.5t-10.5 -25.5t-24.5 -10.5h-36v-223l281 -444q32 -50 12.5 -85.5t-78.5 -35.5zM310 243h399l-153 240l-11 17v21v223h-71v-223v-21
l-12 -17z" />
    <glyph glyph-name="shangjia" unicode="&#x195;" 
d="M829 2h-639q-53 0 -90.5 37.5t-37.5 90.5v159q0 14 9.5 23t22.5 9h64q13 0 22.5 -9t9.5 -23v-95q0 -27 19 -45.5t45 -18.5h511q27 0 45.5 18.5t18.5 45.5v95q0 14 9.5 23t22.5 9h64q13 0 22.5 -9t9.5 -23v-159q0 -53 -37.5 -90.5t-90.5 -37.5v0zM769 462q-9 -10 -23 -10
t-24 10l-149 149v-322q0 -13 -9 -22.5t-22 -9.5h-64q-14 0 -23 9.5t-9 22.5v322l-149 -149q-10 -10 -23.5 -10t-23.5 10l-47 47q-10 9 -10 23t10 24l264 263q1 1 6.5 4t16 6.5t20 3.5t20 -3.5t16 -6.5t6.5 -4l264 -263q10 -10 10 -24t-10 -23l-47 -47v0z" />
    <glyph glyph-name="xiajia" unicode="&#x194;" 
d="M829 2h-639q-53 0 -90.5 37.5t-37.5 90.5v159q0 14 9.5 23t22.5 9h64q13 0 22.5 -9t9.5 -23v-95q0 -27 19 -45.5t45 -18.5h511q27 0 45.5 18.5t18.5 45.5v95q0 14 9.5 23t22.5 9h64q13 0 22.5 -9t9.5 -23v-159q0 -53 -37.5 -90.5t-90.5 -37.5v0zM250 628q10 10 23.5 10
t23.5 -10l149 -148v321q0 13 9 22.5t23 9.5h64q13 0 22 -9.5t9 -22.5v-321l149 148q10 10 24 10t23 -10l47 -46q10 -10 10 -23.5t-10 -23.5l-264 -264q-1 -1 -6.5 -4t-16 -6.5t-19.5 -3.5t-20 3.5t-16.5 6.5t-6.5 4l-264 264q-10 10 -10 23.5t10 23.5l47 46v0z" />
    <glyph glyph-name="guoneichangxianm" unicode="&#x208;" 
d="M512 896q-104 0 -198.5 -40.5t-163 -109t-109 -163.5t-40.5 -199t40.5 -198.5t109 -163t163 -109t198.5 -40.5t199 40.5t163.5 109t109 163t40.5 198.5t-40.5 199t-109 163.5t-163.5 109t-199 40.5zM512.5 -85q-95.5 0 -182.5 37.5t-150 100t-100 149.5t-37 182.5t37 182
t100 149.5t150 100t182.5 37t182 -37t149.5 -100t100 -149.5t37 -182t-37 -182.5t-100 -149.5t-149.5 -100t-182 -37.5zM678 229q0 -9 0.5 -12.5t3.5 -8l5 -7.5h4q6 26 9 42l-9 5q-7 -13 -13 -19zM727 556h-22q-2 8 -5.5 15t-9 14t-8.5 13q-28 0 -36 -10h-4q0 -1 1.5 -3.5
t2 -4t1.5 -5t-1 -5.5h-4v-10h-5q-1 -2 -2.5 -6.5t-1.5 -7.5h-18q-1 -4 -2.5 -11.5t-2.5 -11.5h5q2 -2 4.5 -2.5t4.5 -0.5t7 1t11 2q0 -2 1.5 -7t2.5 -7l-15 -3t-12 -2v-9q-6 -2 -13.5 -5t-9 -2.5t-13.5 2.5v-4h-5q-1 -4 0.5 -8t3 -7t1.5 -4h-9q-2 -2 -5 -7t-4 -7h-32v-5
q-2 0 -6.5 -2t-6.5 -2v4q-4 1 -11.5 2.5t-11.5 2.5v5h-9v4q-8 1 -23 3t-18 2q-6 31 -40 37q1 4 1 6q0 1 1 1q1 1 2 3q-1 15 -10.5 26t-11.5 20q-13 -3 -18 -9h-5v-14h-4q-7 1 -8.5 2t-5.5 6v1q-4 -3 -4 -4v-5q-3 -2 -10 -5v-9q-1 1 -4 2.5l-5 2.5v-5h-13q2 -12 2.5 -13.5
t-2.5 -7t-5 -12.5q-31 -6 -45 -9v9q-6 -1 -10 -3t-9 -5.5t-8 -5.5q2 -8 2.5 -9t6.5 -5v-14l-3.5 2t-5.5 3v-9h9q1 -12 1.5 -15.5t4.5 -6t8 -6.5h4q0 -1 -1.5 -4.5t-2.5 -5.5h4v-28q-7 4 -9 5q1 -15 6.5 -25.5t7.5 -16.5q11 -2 15.5 -4.5t9 -11t6.5 -12.5l5 -2.5t4 -2.5
q3 -5 5 -9q5 -1 15.5 -2.5t16.5 -2.5q-4 -6 -4 -6.5t8 -2.5v9q9 -2 23 -4q1 -5 2 -8t3 -5.5t4 -5.5q22 2 31 14q6 -2 11.5 -5t11.5 -4q1 3 1 5q0 1 1 2l2 2q1 -2 3.5 -9.5t3 -11.5t-1.5 -12h-5q-7 -12 -9 -23h14q0 -3 1 -7.5t2 -7.5t1 -4h-4v-4q6 -4 9 -10q6 -2 8.5 -1.5
t4 -0.5t5.5 -7h5v19q9 0 20 0.5t18 0.5t16 -1v-14q12 -2 31 -5q2 -5 5 -14q-5 -2 -14 -5v-18q8 1 23 4q0 4 1.5 8t1.5 6t-0.5 4.5t-2 4.5t-5.5 5v5q33 6 36 9v10h5q3 -3 1.5 -5.5t3.5 -4.5v10h18v4q10 3 15 8t7 16h9v9h9q2 18 5 23h4v14q2 1 5.5 3l3.5 2q3 6 2 10.5t-3.5 7
t-5 4l-2.5 1.5v5h5v5h-5q1 2 2.5 6.5l2.5 7.5h-9q-4 19 -18 28q1 8 2.5 12t5 7.5t5.5 8.5h14v9q-5 1 -13 2.5t-10 2.5q-1 -3 -4 -10h-9v10q-4 1 -6 1l-1 1l-2 2h-1q-8 1 -4 5h9q14 13 18 28h9v-14h-4v-14q4 2 9 6.5t10 7.5t12 5q2 5 4 8.5t5 7t5 7.5h13v9q11 3 11.5 7.5
t2.5 6.5l5 -2.5t4 -1.5q0 20 -4 32q10 4 18 5v28h4v19q-2 -2 -31 -19q-4 7 -10 19z" />
    <glyph glyph-name="jingquepipeifenzhongtongji" unicode="&#x191;" 
d="M928 64h-800v672q0 13 -9.5 22.5t-22.5 9.5t-22.5 -9.5t-9.5 -22.5v-716q0 -9 6 -14.5t14 -5.5h844q13 0 22.5 9.5t9.5 23t-9.5 22.5t-22.5 9zM260 214l190 190l104 -105q2 -1 3 -2q9 -10 22.5 -10t22.5 10l202 201l70 -70q10 -10 16.5 -7t6.5 16v182q0 8 -6 14t-14 6
h-182q-13 0 -16 -6.5t7 -16.5l72 -72l-179 -179l-106 106q-10 10 -23 9q-14 1 -24 -9l-211 -212q-10 -9 -10 -22t9.5 -22.5t23 -9.5t22.5 9z" />
    <glyph glyph-name="free" unicode="&#x258;" 
d="M895 483l-15 199q-2 27 -22.5 47.5t-47.5 22.5l-199 15q-35 3 -60 -22l-400 -400q-23 -23 -23 -54.5t23 -54.5v0l213 -213q23 -23 54.5 -23t54.5 23l400 400q25 25 22 60zM800.5 629.5q-8.5 -8.5 -21.5 -8.5t-21 9v0q-9 8 -9 21t8.5 21.5t21.5 8.5t21.5 -8.5t8.5 -21.5
t-8.5 -21.5zM382 140l-113 114l69 70l19 -19l-47 -47l30 -30l40 41l19 -19l-40 -41l46 -46zM534 292l-67 20l-15 -16l43 -43l-23 -23l-114 114l40 39q43 43 77 9q24 -25 11 -55l73 -20zM577 335l-114 114l70 69l19 -19l-47 -47l26 -26l40 40l19 -19l-40 -40l30 -30l49 48
l19 -19zM671 429l-114 114l70 70l19 -19l-47 -47l26 -27l40 40l19 -19l-40 -40l31 -30l48 49l19 -19zM453 369q18 -18 -5 -40l-14 -15l-35 35l15 14q22 23 39 6z" />
    <glyph glyph-name="shiziguanli" unicode="&#x180;" 
d="M887 777h-358v51q0 7 -5 12t-12 5t-12 -5t-5 -12v-51h-358q-36 0 -61 -25.5t-25 -60.5v-478q0 -35 25 -60t61 -25h290l-232 -174q-6 -4 -7 -11t3 -13q5 -7 14 -7q5 0 10 4l269 201h22l269 -201q4 -4 10 -4q9 0 14 7q4 6 3 13t-7 11l-232 174h324q36 0 61 25t25 60v478
q0 35 -25 60.5t-61 25.5zM939 213q0 -21 -15 -36t-37 -15h-750q-22 0 -37 15t-15 36v478q0 21 15 36t37 15h750q22 0 37 -15t15 -36v-478zM819 529h-307q-7 0 -12 -5t-5 -12.5t5 -12.5t12 -5h307q7 0 12 5t5 12.5t-5 12.5t-12 5zM819 358h-307q-7 0 -12 -5t-5 -12t5 -12
t12 -5h307q7 0 12 5t5 12t-5 12t-12 5zM380 447q19 21 19 50q0 31 -22 53t-53 22t-52.5 -22t-21.5 -53q0 -29 19 -50q-37 -14 -59 -44t-22 -70q0 -18 12.5 -30.5t30.5 -12.5h186v34h-186q-9 0 -9 9q0 40 28.5 64.5t73.5 24.5t74 -24.5t29 -64.5v0q0 -9 -10 -9v-34
q18 0 31 12.5t13 30.5v0q0 40 -22 70t-59 44zM324.5 457q-16.5 0 -28.5 11.5t-12 28.5t12 29t28.5 12t28.5 -12t12 -29t-12 -28.5t-28.5 -11.5z" />
    <glyph glyph-name="tubiao3paixu" unicode="&#x202;" 
d="M445 681h409q5 0 11 -0.5t9.5 -1t7 0.5t5 4t1.5 8q0 15 -10 25t-24 10h-409q-14 0 -24 -10t-10 -25q0 -5 1.5 -8t5 -4t7 -0.5t9.5 1t11 0.5zM293 155q1 1 3 4v0q0 1 1 1q6 8 8 14q15 28 15 52q0 38 -27 64.5t-64.5 26.5t-64 -26.5t-26.5 -64.5h45q0 19 13.5 32.5t32 13.5
t32 -13.5t13.5 -32.5q0 -25 -10 -35l-126 -103q-7 -7 -7 -16t7 -16q1 -1 5 -3q7 -9 17 -9h137q9 0 16 6.5t7 16t-7 16t-16 6.5h-86l31 25q41 27 51 41zM183 644v-156q0 -14 10 -24t24 -10q6 0 9 1.5t3.5 5t0.5 7t-0.5 9.5t-0.5 11v204v1.5v1.5v4q2 12 0.5 20t-12.5 8
q-15 0 -26 -13l-0.5 -0.5l-0.5 -0.5l-32 -32q-7 -7 -7 -16t7 -16q11 -11 25 -5zM854 522h-409q-14 0 -24 -10t-10 -24q0 -6 1.5 -9t5 -3.5t7 -0.5t9.5 0.5t11 0.5h409q5 0 11 -0.5t9.5 -0.5t7 0.5t5 3.5t1.5 9q0 14 -10 24t-24 10zM854 317h-409q-14 0 -24 -10t-10 -24
q0 -6 1.5 -9t5 -3.5t7 -0.5t9.5 0.5t11 0.5h409q5 0 11 -0.5t9.5 -0.5t7 0.5t5 3.5t1.5 9q0 14 -10 24t-24 10zM854 112h-409q-14 0 -24 -10t-10 -24q0 -5 1.5 -8t5 -4t7 -1t9.5 1t11 1h409q5 0 11 -1t9.5 -1t7 1t5 4t1.5 8q0 14 -10 24t-24 10z" />
    <glyph glyph-name="paixu" unicode="&#x164;" 
d="M318 323h389q14 0 21 -11.5t0 -25.5q-39 -66 -194 -335q-7 -12 -21 -12t-21 12q-10 17 -98 169.5t-96 166.5q-7 12 -0.5 24t20.5 12zM709 447h-388q-14 0 -21.5 11.5t0.5 25.5q37 66 194 335q7 13 20.5 13t21.5 -13q9 -16 97.5 -168.5t96.5 -167.5q7 -11 0.5 -23.5
t-21.5 -12.5z" />
    <glyph glyph-name="ty" unicode="&#x168;" 
d="M612 335q74 -16 129.5 0t95 41t66 67.5t42.5 79t24 74.5t10.5 55.5t2.5 22.5q-62 4 -114 -5t-88 -27t-64.5 -44.5t-45.5 -54t-29.5 -59.5t-18 -56t-8 -48.5t-2.5 -32.5v-13v0zM42 705q17 -1 42 -5q-26 4 -42 5v0v0v0v0v0v0q2 -66 19 -121.5t40.5 -93t63.5 -69t71 -48.5
t79.5 -32.5t74 -21t68.5 -14.5q23 -4 33 -6q25 -121 10 -271q-2 -14 8.5 -24.5t24.5 -10.5v0q14 0 24 10.5t10 24.5v16q-2 77 -3.5 119t-12.5 119.5t-30.5 124t-58 107t-92.5 95.5t-138 62.5t-191 33.5z" />
    <glyph glyph-name="lesson" unicode="&#x207;" 
d="M947 832q-22 15 -47 5l-388 -155l-387 155q-25 10 -47.5 -5t-22.5 -42v-650q0 -16 9 -28.5t23 -18.5l405 -162q9 -3 10 -3q5 -1 10 -1t10 1l10 3l405 162q15 6 23.5 18.5t8.5 28.5v650q0 27 -22 42zM919 141l-369 -147v632l369 147v-632zM849 349l-203 -81v-55l203 82v54
zM849 560l-203 -81v-53l203 81v53zM482 -9l-372 148v631l372 -148v-631zM376 468l-203 81v-55l203 -81v55zM376 255l-203 82v-53l203 -82v53z" />
    <glyph glyph-name="iconxingbie" unicode="&#x211;" 
d="M325 330q85 12 141.5 76.5t56.5 151.5q0 95 -67 162t-162 67t-162.5 -67t-67.5 -162q0 -87 57 -151.5t141 -76.5v-110h-149v-64h149v-148h63v148h149v64h-149v110v0zM128 558q0 68 48.5 116.5t117 48.5t117.5 -48.5t49 -117t-49 -117t-117.5 -48.5t-117 48.5t-48.5 117.5
v0zM501 208q0 -95 67.5 -162.5t162.5 -67.5t162.5 67.5t66.5 162.5q0 86 -56.5 150.5t-140.5 76.5v233l60 -61l45 45l-106 106v0v0l-31 31l-138 -137l45 -45l61 61v-233q-84 -12 -141 -76.5t-57 -150.5v0zM897 208q0 -69 -48.5 -117.5t-117.5 -48.5t-117.5 48.5t-48.5 117
t48.5 117.5t117.5 49t117.5 -48.5t48.5 -117.5v0zM897 208z" />
    <glyph glyph-name="iconguoneichangxian" unicode="&#x206;" horiz-adv-x="1025" 
d="M236 205q-6 -4 -13 -7l-24 -104q-3 -15 -16.5 -23t-28.5 -3l-18 5q5 70 -34 139t-102 99l4 19q4 15 17.5 23t28.5 3l159 -48l1.5 -1.5t1.5 -0.5q113 94 229 179l-234 280l-7 3q-13 8 -17.5 23.5t3.5 29t23 18t29 -3.5l183 -94l26 15q7 4 14.5 2t11.5 -9t2 -14.5t-9 -11.5
l-5 -2l185 -95q313 196 372 100q18 -29 -15.5 -73.5t-101 -92.5t-154 -99t-176 -96t-165 -81.5t-122.5 -57.5t-48 -21v0zM754 380l-11 -181q7 4 14.5 2t10.5 -9q4 -7 2 -14.5t-9 -11.5l-20 -12l-11 -183q0 -16 -11 -27t-26.5 -11t-26.5 11t-11 27v7l-96 272q108 67 195 130
v0zM754 380z" />
    <glyph glyph-name="dikou" unicode="&#x263;" 
d="M1009.5 456q40.5 72 -30.5 114t-72 124t-83 83t-124 72t-114 30.5t-143.5 0t-113.5 -30.5t-124 -72t-83 -83t-72 -124t-30.5 -114t0 -143.5t30.5 -113.5t72 -124t83 -83t124 -72t113.5 -30.5t143.5 0t114 30.5t124 72t83 83t72 124t30.5 113.5t0 143.5zM243 516.5
q0 39.5 28 67.5t68 28t68 -28t28 -67.5t-28 -67.5t-68 -28t-68 28t-28 67.5zM360 96q-8 -14 -24 -14q-9 0 -17 5q-10 7 -12.5 19t4.5 22l357 545q7 10 19 12.5t22.5 -4t13 -18.5t-4.5 -22zM689.5 157q-39.5 0 -67.5 28t-28 67.5t28 67.5t67.5 28t67.5 -28t28 -67.5
t-28 -67.5t-67.5 -28z" />
    <glyph glyph-name="hwcg" unicode="&#x233;" 
d="M818 172h-564l72 158l-102 332h-81v37h108l115 -372l-54 -117h506v-38zM767 288h-431v37h405l86 229h-53v37h107zM411 38q-19 0 -32.5 13t-13.5 32t13.5 32.5t32.5 13.5t32.5 -13.5t13.5 -32.5t-13.5 -32t-32.5 -13v0zM411 92q-9 0 -9 -8.5t8.5 -8.5t9 8.5t-8.5 8.5z
M690 38q-19 0 -32.5 13t-13.5 32t13.5 32.5t32.5 13.5t32.5 -13.5t13.5 -32.5t-13.5 -32t-32.5 -13v0zM690.5 92q-8.5 0 -8.5 -8.5t8.5 -8.5t8.5 8.5t-8.5 8.5zM496 386l44 38q8 8 9 27q2 23 -22 38q-20 12 -14 55q1 8 1 10q-4 5 -24 7q-17 2 -25 6l-3 1q-49 23 -60 69
q-2 7 -4 12t-3 7l-2 1q3 -2 8 0l-16 34q12 5 25 -1q19 -9 28 -45q4 -15 13 -25l-1 3q-3 18 4 30t19 16q8 4 20.5 1.5t17.5 -10.5q12 22 39 42q5 4 4 8q0 8 -10 16l22 29q25 -18 26 -44q0 -21 -18 -37l-1 -1q-27 -20 -31 -35q-5 -20 -24 -22q-16 -1 -32 16q0 -1 1 -3
q1 -5 2 -8h2q14 -2 23 -7q6 -3 15 -9q11 -7 18 -8q71 -2 107 -29q28 -20 32 -44q4 -27 -22 -62q-48 -65 -110 -71zM548 520q42 -28 38 -72q0 -6 -1 -10q24 12 49 46q17 23 15 34q-2 9 -17 20q-26 19 -81 22q1 -6 -1 -21q-3 -15 -2 -19zM538.5 356q-83.5 0 -143 59.5
t-59.5 143t59.5 143t143 59.5t143 -59.5t59.5 -143t-59.5 -143t-143 -59.5zM538.5 723q-68.5 0 -117 -48t-48.5 -116.5t48.5 -117t117 -48.5t116.5 48.5t48 117t-48 116.5t-116.5 48z" />
    <glyph glyph-name="wodeqianbao2" unicode="&#x244;" 
d="M791 -63h-560q-69 0 -118.5 49t-49.5 119v112v448q0 69 49.5 118.5t118.5 49.5h336q54 0 97.5 -31.5t60.5 -80.5h66q70 0 119 -49.5t49 -118.5v-448q0 -70 -49 -119t-119 -49v0zM567 777h-336q-42 0 -73.5 -28.5t-36.5 -70.5q48 43 110 43h433q-15 25 -40.5 40.5
t-56.5 15.5v0zM903 441q0 11 -8 19.5t-20 8.5h-280q-11 0 -19.5 -8.5t-8.5 -19.5v-168q0 -12 8.5 -20t19.5 -8h280q12 0 20 8t8 20v168v0zM903 189h-336q-23 0 -39.5 16t-16.5 40v224q0 23 16.5 39.5t39.5 16.5h336v28q0 46 -32.5 79t-79.5 33h-560q-46 0 -79 -33t-33 -79
v-448q0 -47 33 -79.5t79 -32.5h560q47 0 79.5 32.5t32.5 79.5v84zM623 385h56v-56h-56v56zM623 385z" />
    <glyph glyph-name="fabu" unicode="&#x204;" 
d="M958 798v0q0 2 -1 3v1v2v0v0q0 2 -1 3v0.5v0.5q0 1 -0.5 1.5l-0.5 0.5q0 1 -1 2v1v0q-1 1 -1 2l-1 1q0 1 -1 1v0.5v0.5l-2 2h-1q0 1 -1 2h-1v0l-2 2v0h-1q0 1 -1 2h-0.5h-0.5q-1 1 -2 1l-1 0.5t-2 0.5h-1q-1 1 -2 1h-0.5h-0.5h-2h-1h-2v0q-2 1 -3 0h-1h-2v0v0q-2 0 -3 -1
v0h-1t-1 -1h-1.5h-1h-0.5h-0.5h-0.5v0l-831 -435q-17 -9 -17 -28t17 -27l223 -113q12 -6 24 -2t18 15.5t2 23.5t-16 18l-169 86l640 334l-394 -473q-8 -9 -8 -20v-237q0 -12 9.5 -21t22 -9t21.5 9t9 21v226l417 499l-95 -641l-224 111q-11 6 -23 1.5t-18 -16t-2 -23.5
t16 -18l262 -129q6 -4 13 -4q8 0 15 4q14 7 16 23l117 792v0.5v0.5v1q1 1 1 2z" />
    <glyph glyph-name="h5logo" unicode="&#x190;" horiz-adv-x="3363" 
d="M2136 533q-2 0 -31 -1.5t-79.5 -3t-98.5 -2.5q4 9 22.5 51.5t24.5 50.5q5 8 13 9.5t24 -0.5t23 -2q8 1 15 0.5t11 -1.5t7.5 -2t5 0t1.5 3q1 8 5 36t4 36q0 4 0.5 8t0.5 5.5t-2 2.5t-6 1q-6 0 -93 5.5t-93 5.5q-3 0 -4.5 1t-2 3l-1 4t0 5.5t0.5 6t1 7t1 6.5t0.5 6t1 6.5
t1 6.5t0.5 6.5v5.5t-0.5 5t-1.5 4t-2.5 3t-3.5 1q-5 1 -43.5 3.5t-44.5 3.5l-6 -2q-6 -6 -3 -30q3 -26 -4 -37.5t-22 -9.5q-9 0 -75 2.5t-79 2.5q-6 0 -10 -2.5t-5 -6.5t-1 -10t0.5 -13.5t-0.5 -16.5q-2 -23 -0.5 -30t10.5 -5l92.5 -8t116.5 -8q37 0 51 -7q2 -1 2.5 -4
t-0.5 -7.5l-2 -9t-3.5 -10.5t-4 -10t-3.5 -9t-2.5 -6.5t-3.5 -8t-4.5 -11t-3.5 -10t-1.5 -8.5t3.5 -4q5 -2 46 -16q-26 -1 -95.5 -3.5t-104.5 -3.5q10 2 41.5 13.5t37.5 16.5q3 2 3.5 5t-1.5 7.5t-4 8.5t-5.5 10t-6.5 11q-1 3 -5.5 13t-8 16t-8 14t-9 11t-8.5 2
q-7 -3 -32.5 -10t-32.5 -9q-10 -3 -13.5 -9t-0.5 -15.5t6.5 -16t10.5 -18.5q3 -4 4 -6q21 -39 30 -42q-46 -1 -93 -3t-73 -3t-27 -1q-9 0 -9.5 -10.5t3.5 -29.5q1 -6 1 -9q2 -15 1 -24t0.5 -13.5t10.5 -4.5q49 0 230 7l-4 -7q4 -8 5 -17t0 -24.5t-1 -18.5v-7h12q37 -5 63 -5
v-39l-103 4q-7 0 -11.5 6t-4.5 13v51q0 12 -0.5 17t-4 8t-11.5 3t-35.5 1t-36.5 1q-41 4 -38 -18q1 -10 10.5 -112t10.5 -112v-6.5v-5.5t0.5 -4.5t1 -3.5t1.5 -3t3 -2t4.5 -1t6.5 1l207 4v-35q-75 7 -91 7q-3 0 -7 0.5t-5 0.5t-2.5 -0.5t-1.5 -2.5v-4v-8q0 -4 -1 -11
t-1.5 -11.5t0 -9.5t2 -7.5t4.5 -2.5q2 0 25.5 2t44.5 2t28 -4q5 -4 5 -18v0q0 -14 -10 -14q-3 0 -67.5 2.5t-76.5 2.5q-6 0 -9.5 -2t-4.5 -6.5t-1 -9t0.5 -14.5t0.5 -17q1 -8 0.5 -14.5t0.5 -10.5t3.5 -7t9.5 -5t18.5 -2.5t30.5 -0.5q289 0 344 5q5 0 11 0.5t8 0.5t5.5 0.5
t4 1.5t1.5 3.5t1 6v8.5q0 32 -5 56q-1 3 -3 5t-5.5 2.5t-7.5 0t-11 -0.5h-13v0q-3 0 -47.5 1.5t-77.5 0.5q-4 0 -6.5 2t-0.5 5q5 16 14 16q21 -3 65.5 -6t52.5 -3q2 0 3.5 0.5t2.5 2t1 2.5t0.5 4t0.5 5t-0.5 6.5t-0.5 7.5v21q0 2 -0.5 3t-2 2t-3 1.5t-5 0.5h-6h-7.5h-8
q-12 0 -105 4v7q0 3 1 17t1 16q83 0 151.5 5.5t69.5 15.5q1 1 12 142q8 95 -12 95q-3 0 -9.5 1.5t-17.5 1.5q-19 0 -312 16q371 10 379 12q17 1 19 6.5t0 44.5q-5 33 -12 37.5t-26 -0.5zM1794 228q-83 0 -118 7v33q7 0 121 -5q0 -4 -1.5 -17.5t-1.5 -17.5zM1985 333
q15 0 19 -16q1 -12 2 -33.5t2 -32.5q0 -7 -4.5 -12.5t-11.5 -5.5q-30 -3 -100 -3v7v28q8 0 27 1.5t29 1.5q5 0 7 2t2 16q0 7 -2 10l-7 2q-6 0 -17 1t-16 1q-4 0 -13.5 1.5t-14.5 1.5v32v7q29 -4 98 -9zM2378 556q17 -5 76 -19.5t62 -15.5q5 0 7.5 -0.5t4.5 4t2.5 7t1.5 9
t2 11.5q14 37 19 65q1 4 -0.5 7t-6 5.5t-8.5 4t-13 4t-14 4.5q-15 6 -68.5 21t-57.5 17q-6 2 -10.5 2t-6.5 -1l-1 -1q-4 -9 -16 -46t-14 -45q-4 -10 7 -17t34 -16zM2476 300q1 5 10 39t9 40q0 3 1 8.5t-1 7t-9 3.5q-14 3 -89.5 18t-87.5 17q-5 1 -8 -4t-4.5 -15.5
t-1.5 -17.5v-19q-1 -2 -1.5 -10t-1 -12.5t-1.5 -12t-0.5 -12l1 -9t2 -7t3.5 -2.5q8 0 65.5 -6t71.5 -8q5 -1 11.5 -2.5t11 -2t9 -0.5t7.5 1.5t3 5.5zM2697 559q1 -2 1.5 -4.5t3.5 -5.5t7 -2l32 6.5t40 9.5q2 1 10 3t10.5 3.5t5.5 5t2 9.5q-12 70 -16 112q-1 5 -3 19
t-4.5 19.5t-9.5 5.5q-29 0 -83 -12q-5 -1 -10.5 -2t-9 -1.5l-7 -1t-6 -1.5t-4.5 -2t-3 -2t-1.5 -3t0 -4.5t1.5 -5.5q9 -42 44 -146zM3235 612q-7 1 -93 1t-93 1q-9 2 5.5 27t26.5 41q1 1 3.5 4t4 5t3.5 5.5t2.5 6t0.5 5t-1.5 5t-5.5 4.5q-118 44 -139 53q-1 0 -2.5 0.5
t-4 -2t-3.5 -7.5q-1 -8 -30 -99.5t-37 -116.5q-3 -8 -7 -18t-5 -13q-4 0 -18 5q-9 2 -136 25.5t-139 25.5q-3 1 -5.5 -0.5t-4.5 -4t-3.5 -5.5t-3.5 -7.5t-3 -8t-2.5 -9.5t-2 -9t-1.5 -8.5t-2 -7.5l-2 -8t-2 -6t-1 -4t0.5 -3t2 -1.5l4.5 -1.5l82 -9v0q1 0 2 -3.5t2 -3.5
q8 -2 12 -10.5t0 -14.5q-128 -250 -135 -273q-1 4 -3.5 10t-3.5 9t-4 7.5t-5 4t-7 -0.5q-136 -45 -161 -48q-8 -7 -6.5 -15.5t15.5 -39.5q2 -6 3 -8q2 -5 5 -13q10 -27 15 -35.5t13 -5.5q3 2 22 8t42.5 14t39.5 15q48 22 51 33q2 0 3 -1t2 -1q11 -5 24.5 -10t21 -8t15.5 -6
q10 -3 19.5 12t21.5 51q7 19 16.5 48.5t15.5 48.5t8 22h2q3 0 5 2h9q6 -1 15 -4.5t11 -4.5q6 -2 9.5 -6.5t2.5 -9.5q-5 -47 -10 -75t-23 -28q-6 0 -22 3.5t-25 2t-11 -12t-7.5 -34t-6.5 -31.5q-1 -5 0 -8t5 -4.5t8.5 -2t11.5 -1.5t12 -2q66 -15 116 -21q13 -2 16.5 4t7.5 28
q2 15 17 138.5t15 124.5q1 3 0 5.5t-4.5 4t-7 2.5t-10 2.5t-12 2t-15 2t-16.5 2.5t-16 2.5t-13.5 2.5t-10.5 2t-8.5 2t-6 2.5t-5 3t-3.5 4.5v7v2v0q24 54 28 68q2 3 6.5 4t12 0t14.5 -2t17.5 -3.5t17.5 -3.5q57 -10 60 0q2 5 10 65v0q18 -9 39 -16q-5 0 -10.5 1l-5.5 1
q-9 0 -12 -5t-4 -23q-5 -46 -5 -58q-1 -3 1 -5t7 -2.5t9.5 -0.5t14.5 0.5t17 0.5q63 0 86 -2h2q4 0 11 -1.5t10 -1.5q5 0 8 -5t-1 -9q-14 -16 -46 -49l-3 -2v-4q0 -7 5 -17v0q2 -23 -9 -28q-8 -3 -70 -12t-72 -9q-11 0 -12.5 -10.5t5.5 -38.5q1 -5 2.5 -11t2 -9.5t1.5 -8
t2 -6.5t2 -4.5t2.5 -3.5t3 -1.5t4 -0.5t5.5 1l149 24q9 0 9 -7q2 -11 4 -33l3 -33q0 -3 -2.5 -6t-6.5 -3q-79 5 -98 7q-5 1 -8 -1t-4 -6t-0.5 -8.5t1 -12t0.5 -12.5q0 -12 1 -29.5t1 -23.5t7 -8t24 -0.5t20 1.5q140 14 163 14q9 0 8.5 12t-3.5 23q-2 6 -8 34.5t-10.5 54
l-4.5 25.5v0q0 1 -1.5 4.5t-1.5 4.5v3v4t1 2.5t3 2.5t6 2v0h4q10 0 12 2h18h15t12.5 -0.5t8.5 0t5.5 1.5t0.5 4q-1 4 -9 61q-1 3 -2 9t-1.5 8t-3.5 5.5t-7.5 2t-13.5 -1.5q-12 -3 -25.5 -5t-20.5 -2h-7v0q-16 5 -10 12q8 11 47.5 74t45.5 75q6 7 6 11t-3 4l-3 1
q-7 0 -43 3.5t-90 9t-85 8.5q3 5 8.5 18t10 21.5t9.5 9.5h16q58 -12 170 -26q3 0 8 -1q23 -3 32 -3t11 6q0 4 2 15.5t4 26t3 21.5q9 15 11.5 31t-6.5 18zM819 375q228 -21 368 213q67 113 93 234q-97 8 -175 -1.5t-127.5 -32.5t-85.5 -58t-53.5 -71.5t-26 -79.5t-8.5 -75.5
t4 -66t6.5 -45t4.5 -17.5v0zM95 826l-16 3q-9 -96 9 -173t50 -126.5t88.5 -86.5t104.5 -55.5t118 -30.5t108 -14.5t95 -5.5q8 -26 13.5 -72t7 -79.5t4 -95.5t3.5 -78q0 -27 26 -50.5t67 -22.5q48 2 80.5 30t23.5 68q-11 75 -27.5 141t-46 141t-69.5 137t-100.5 124
t-135 108.5t-177.5 83t-226 54.5z" />
    <glyph glyph-name="jian" unicode="&#x196;" 
d="M512 896q-139 0 -257 -68.5t-186.5 -186.5t-68.5 -257t68.5 -257t186.5 -186.5t257 -68.5t257 68.5t186.5 186.5t68.5 257t-68.5 257t-186.5 186.5t-257 68.5zM512 -77q-94 0 -179 36.5t-147 98.5t-98.5 147t-36.5 179t36.5 179t98.5 147t147 98.5t179 36.5t179 -36.5
t147 -98.5t98.5 -147t36.5 -179t-36.5 -179t-98.5 -147t-147 -98.5t-179 -36.5zM307 410h410v-52h-410v52z" />
    <glyph glyph-name="shougong" unicode="&#x225;" 
d="M766 236v0v0q-1 0 -7 3l-25 13q-94 50 -161 136q1 1 3 3.5t3 3.5v0q121 148 165 333l3 13q4 18 -10 30q-11 10 -25 8t-22 -14l-178 -285l-178 285q-8 12 -22 14t-25 -8q-14 -12 -10 -30l3 -13q44 -185 165 -333v0q1 -1 3 -4t3 -3q-66 -85 -160 -136l-26 -13l-6 -3v0
q-34 -18 -54 -51t-20 -72q0 -58 41.5 -99t99.5 -41q56 0 96.5 39.5t42.5 95.5h1q6 94 46 180q40 -86 47 -180v0q2 -56 42.5 -95.5t97.5 -39.5q58 0 99 41t41 99q0 39 -20 72t-53 51zM325.5 26q-35.5 0 -61 25.5t-25.5 61.5t25.5 61t61 25t61 -25t25.5 -61t-25.5 -61.5
t-61 -25.5zM699 26q-36 0 -61.5 25.5t-25.5 61.5t25.5 61t61.5 25t61.5 -25t25.5 -61t-25.5 -61.5t-61.5 -25.5z" />
    <glyph glyph-name="yundong" unicode="&#x219;" 
d="M616 247q-5 5 -12 5t-12 -6q-79 -99 -77 -227q0 -7 5 -11.5t12 -4.5q123 7 219 84q6 5 6 12t-5 12zM877 381q-128 2 -227 -77q-6 -5 -6 -12t5 -12l136 -136q5 -5 12 -5t12 6q77 96 84 219q0 7 -5 12t-11 5zM147 387q128 -2 227 77q6 4 6 11.5t-5 11.5l-136 137
q-5 5 -12 5t-12 -6q-77 -96 -84 -220q0 -6 5 -11t11 -5zM560 303l-129 129q-10 10 -21 0q-112 -92 -259 -92q-7 0 -11.5 -5t-3.5 -12q19 -121 106.5 -208.5t208.5 -106.5q7 -1 12 3.5t5 11.5q0 147 93 259q9 11 -1 21zM409 521q4 -5 11.5 -5t11.5 6q79 99 77 227q0 6 -5 11
t-11 4q-124 -6 -220 -84q-5 -4 -5.5 -11t4.5 -12q68 -68 137 -136zM464 465l129 -129q10 -10 21 -1q112 93 259 93q7 0 11.5 5t3.5 12q-19 122 -107 208q-87 88 -208 107q-7 1 -12 -3.5t-5 -11.5q0 -147 -93 -259q-9 -11 1 -21z" />
    <glyph glyph-name="guang" unicode="&#x250;" 
d="M384 59l128 67l128 -67l-25 142l104 101l-143 20l-64 130l-64 -130l-143 -20l104 -101zM384 276l88 13l40 80l40 -80l88 -13l-64 -62l15 -88l-79 41l-79 -41l15 88zM425 613q-8 0 -13.5 -5.5t-5.5 -13t5.5 -13t13.5 -5.5h178q7 0 12.5 5.5t5.5 13t-5.5 13t-12.5 5.5h-178
zM347.5 466q15.5 0 26 11t10.5 26q0 21 -18 31v115q0 61 43 103.5t103 42.5t103 -42.5t43 -103.5v-115q-18 -10 -18 -31q0 -15 10.5 -26t26 -11t26 11t10.5 26q0 21 -18 31v115q0 76 -53.5 129.5t-129.5 53.5t-129.5 -53.5t-53.5 -129.5v-115q-18 -10 -18 -31
q0 -15 10.5 -26t26 -11zM841 596q-1 7 -6 12t-12 5h-74q-8 0 -13 -5.5t-5 -13t5 -13t13 -5.5h57l69 -603h-726l69 603h47q7 0 12.5 5.5t5.5 13t-5.5 13t-12.5 5.5h-64q-7 0 -12 -5t-6 -12l-73 -640q-1 -8 4.5 -14t13.5 -6h768q8 0 13.5 6t4.5 14z" />
    <glyph glyph-name="huwaib" unicode="&#x221;" 
d="M360 420l3 4v0l25 34l24 -34h1h-1l8 -11l31 -43l65 100l-124 286l-130 -299l61 -87zM591 295l-54 126l-87 -117l-24 33v0l-8 12l-30 42l-37 -50l-3 -4v0l-25 -33l-25 33v0v1l-55 75l-175 -401h646l-123 284v-1zM820 335l-51 -69l-18 26v0l-6 9l-23 31l-28 -37l-2 -3v0
l-19 -26l-18 26h-1h1l-41 58v-1v0l-8 -21l137 -316h213zM701 355l2 3v0l19 25l18 -25h1l-1 -1l6 -8l23 -33l37 53l-91 216l-87 -203l45 -65z" />
    <glyph glyph-name="quan" unicode="&#x242;" 
d="M945 436l-485 -485q-14 -15 -34.5 -15t-34.5 15l-70 69l-34 35q21 21 21 51.5t-21.5 52t-52 21.5t-51.5 -21l-70 69l-34 35q-15 14 -15 34.5t15 34.5l485 485q14 15 34.5 15t34.5 -15l104 -104q-21 -21 -21 -51.5t21.5 -52t52 -21.5t51.5 21l87 -86l17 -18
q15 -14 15 -34.5t-15 -34.5v0v0zM834 547q-33 -13 -69 -6t-62.5 33.5t-33.5 63t6 68.5l-59 59q-7 8 -17 8t-18 -8l-312 -312l26 -26q9 -8 0 -17l-17 -17q-9 -9 -17 0l-26 26l-104 -104q-8 -7 -8 -17.5t8 -17.5l59 -59q33 13 69 6t62.5 -33.5t33.5 -62.5t-6 -69l59 -59
q7 -8 17 -8t18 8l104 104l-26 26q-9 8 0 17l17 17q9 9 17 0l26 -26l312 312q8 8 8 18t-8 17zM503 202l-17 -17q-9 -9 -17 0l-52 52q-9 8 0 17l17 17q9 9 17 0l52 -52q9 -8 0 -17v0v0zM399 306l-17 -17q-9 -9 -17 0l-52 52q-9 8 0 17l17 17q9 9 17 0l52 -52q9 -8 0 -17v0v0z
M399 306z" />
    <glyph glyph-name="fuli" unicode="&#x228;" 
d="M1004 482v110q-1 23 -10.5 40t-22 25t-25 13t-21.5 6l-8 1l-43 -1q2 4 6 10t11 24t8.5 34.5t-7.5 37.5t-32 36q-47 26 -94.5 23t-91.5 -26.5t-78 -50.5t-55 -49l-20 -21l-2 -737h332q26 0 45 8.5t27.5 19t13.5 24t5.5 19t0.5 8.5v337q0 8 -1.5 15.5t-2.5 11.5l-2 3
q20 5 34 15.5t20 21t9.5 20t3.5 15.5v7zM802 784q25 -8 32.5 -22.5t2.5 -25.5l-5 -10q-1 -17 -36 -49h-212q4 5 12.5 13.5t34 29.5t50 35.5t58.5 24.5t63 4zM883 362v-327q0 -3 -1.5 -7.5t-10 -11t-22.5 -6.5h-299v389h307q4 -1 8.5 -2.5t11.5 -10.5t6 -24zM944 478
q-1 -3 -3 -7.5t-9.5 -11t-17.5 -5.5h-365v167h368q2 0 6 -1.5t11.5 -8.5t9.5 -18v-115zM104 403q-5 -11 -6 -30v-337q0 -4 0.5 -9t6 -18.5t14 -24t27.5 -19t44 -8.5h333l-2 737q-4 4 -11 11.5t-29 28.5t-45 38.5t-56 35.5t-64 26.5t-67 5.5t-68 -22q-22 -15 -31.5 -35.5
t-7.5 -38.5t8 -33.5t11.5 -25t6.5 -9.5l-43 1q-4 0 -9.5 -1t-20 -6t-26 -13t-21 -25t-10.5 -40v-110v-7t3 -15t9 -21t20.5 -20.5t33.5 -15.5zM458 677h-213q-15 14 -24 26.5t-10 17.5l-2 5q-1 1 -2.5 4t-3 11t0.5 14.5t11 15t24 13.5q30 6 63 -3t59.5 -26t49 -34.5
t35.5 -30.5zM184 399h308v-389h-300q-13 0 -22 6.5t-10.5 11t-1.5 7.5v327q0 31 26 37zM98 593q1 11 8 18t13 9l6 1h368l-1 -167h-365q-10 -1 -17 5t-10 12l-2 7v115z" />
    <glyph glyph-name="daoshi" unicode="&#x234;" 
d="M481 -11l60 31l-43 199l14 24l-1 26q-30 1 -61 0l-1 -26l14 -24l-43 -199zM297 474q23 -81 65 -127q44 -47 107 -59l4 -1l4 1q68 16 110 62q40 45 61 125q19 11 28 37q11 27 10 69v11l-9 6q-1 1 -3 2q6 61 0.5 108t-24 77.5t-60.5 42t-108 1.5q-34 -4 -62.5 -2t-58.5 -1
t-47 -16q-34 -34 -42 -89t4 -117q-5 -3 -9 -6l-9 -6v-11q-1 -43 10 -70q10 -26 29 -37zM324 562q1 2 2 7v0l1 4q2 6 5 20.5t4 20.5q2 6 4 11q22 -18 51.5 -23.5t65.5 6t67 40.5l-12 -34l12 -2l13 22l-1 -15l12 -2l8 26q1 -1 6.5 -4.5t7.5 -4t6.5 -3.5t7 -3.5t6.5 -1.5
t7.5 -0.5t6.5 2.5q8 -19 11 -40l4 -19l5 1l3 -10q7 1 19 1q-2 -20 -7 -34t-14 -17l-10 -4l-3 -11q-19 -77 -54 -116q-32 -35 -86 -48q-48 9 -81 45q-38 41 -58 119l-3 11l-10 4q-9 3 -15 17q-5 13 -7 34q22 4 26 1zM804 165l97 244l-23 11l-66 -166l-22 -53q-25 54 -56 85
l-6 7h-9l-104 -4v-46l96 4q37 -42 61 -121q23 -76 21 -143h-637q4 71 18 128q21 87 65 132l87 -1v45l-95 1h-8l-7 -5q-58 -54 -84 -160q-18 -73 -19 -162l-1 -23h22h679h19l2 20q9 82 -21 181q-4 13 -9 26z" />
    <glyph glyph-name="faq" unicode="&#x232;" 
d="M187 381q-5 32 4.5 73.5t35 86t62 83t91 65.5t116.5 31q83 6 151.5 -24.5t107 -84.5t59.5 -121t9.5 -136.5t-43 -128t-98 -98.5t-155.5 -46q-57 -4 -124.5 22.5t-106.5 62.5q-25 22 -38 39.5t-28 47.5q-6 13 -24 66.5t-19 61.5v0zM129 458v-115q0 -51 31.5 -109.5
t78.5 -105.5t105.5 -78t109.5 -31h114q51 0 109.5 31t105.5 78t78.5 105.5t31.5 109.5v115q0 68 -50 143t-126.5 126.5t-148.5 54.5h-114q-51 0 -109.5 -31.5t-105.5 -78t-78.5 -105.5t-31.5 -109zM397 439h57q2 21 3.5 31.5t2.5 19t6.5 13.5t8.5 8t15.5 10t20.5 13l55 -41
q-4 -34 -15.5 -55t-24.5 -31.5t-25 -24t-20 -41.5t-8 -74h76q1 43 9.5 66.5t19.5 32.5t22 19t18.5 36.5t7.5 74.5q0 65 -64 85q-60 19 -118 -12q-64 -33 -56 -97q2 -16 9 -33zM473 248h76v-58h-76v58z" />
    <glyph glyph-name="tong-copy" unicode="&#x227;" 
d="M596 689h295l-40 -72h-30l-9 -52h92l-39 -72h-722v72h93l-14 52h-65v72h286q3 8 17.5 32t47.5 23.5t55 -13.5q22 -12 33 -42zM587 139h313l-39 -70h-274v-35h321l-39 -71h-717v71h303v35h-293v70h293v34h-297v283h1v1h131v-1h165v1h132v-1h163v1h131v-214l-128 -70h-166
v-34zM455 386h-165v-46h165v46zM455 284h-165v-41h165v41zM367 565h313l9 52h-335zM587 340h163v46h-163v-46zM587 243h163v41h-163v-41z" />
    <glyph glyph-name="yishu02" unicode="&#x218;" 
d="M513 700q-86 0 -159.5 -43t-116 -117t-42.5 -160.5t42.5 -160t116 -116.5t159.5 -43q22 0 38 15.5t16 37.5t-14 35q-13 18 -13 35q0 22 15.5 37.5t37.5 15.5h64q74 0 126 52.5t52 126.5q-2 118 -96 201.5t-226 83.5v0zM320 380q-22 0 -37.5 15.5t-15.5 37.5t15.5 38
t37.5 16t37.5 -16t15.5 -38t-15.5 -37.5t-37.5 -15.5v0zM426 521q-22 0 -37.5 16t-15.5 38t15.5 37.5t37.5 15.5t37.5 -15.5t15.5 -37.5t-15.5 -38t-37.5 -16v0zM601 521q-22 0 -37.5 16t-15.5 38t15.5 37.5t37.5 15.5t37.5 -15.5t15.5 -37.5t-15.5 -38t-37.5 -16v0z
M707 380q-22 0 -37.5 15.5t-15.5 37.5t15.5 38t37.5 16t37.5 -16t15.5 -38t-15.5 -37.5t-37.5 -15.5v0zM707 380z" />
    <glyph glyph-name="iconfonttiyanshi" unicode="&#x236;" 
d="M948 -37q-21 132 -79 214t-147 136q54 46 83 108t29 131q0 86 -43 159t-117.5 115.5t-161.5 42.5t-161.5 -42.5t-117.5 -115.5t-43 -159q0 -70 30 -133t85 -109q-99 -52 -160 -146t-69 -204v-6v0v-1v0v0v-1q0 -12 9 -20.5t21 -8.5h5h5h790h2q2 -1 4 -1q14 0 24.5 10
t10.5 24h1v7v0zM255 552q0 105 75.5 179t181.5 74t181.5 -74t75.5 -178.5t-75.5 -178.5t-181.5 -74t-181.5 74t-75.5 178v0zM139 -18q14 98 74.5 176t150.5 114q77 -36 148 -36q73 0 140 32l11 6q35 -17 67 -40.5t65 -59t54.5 -85t25.5 -107.5h-736v0zM139 -18zM706 205
q-15 0 -30.5 -8.5t-20.5 -20.5v-1v0q-3 4 -7.5 8.5l-7.5 7.5l-4 2q-19 12 -31 12q-20 0 -34 -13t-14 -32q0 -14 9 -26q23 -40 85 -89v0l4 -3l4 3q84 66 91 97q4 9 4 18q0 19 -14 32t-34 13v0zM706 205z" />
    <glyph glyph-name="icon01" unicode="&#x226;" 
d="M710 91h-401q-38 0 -67.5 26t-33.5 65l-43 254q-43 1 -73.5 31.5t-30.5 73.5q0 44 31 75t75 31t75 -31t31 -75q0 -10 -2 -20l102 -41l75 150q-42 31 -42 84q0 44 31 75t75 31t75 -31t31 -75q0 -53 -42 -84l75 -150l102 41q-2 10 -2 20q0 44 31 75t75 31t75 -31t31 -75
q0 -43 -30.5 -73.5t-73.5 -31.5l-43 -256q-8 -40 -37 -64.5t-69 -24.5v0zM197 479l49 -292q3 -26 22 -41.5t41 -15.5h401q25 0 43.5 15.5t24.5 41.5l49 292l19 -4h11q28 0 47.5 19.5t19.5 47t-19.5 47t-47.5 19.5t-47.5 -19.5t-19.5 -47.5q0 -12 5 -24l7 -18l-170 -68
l-107 215l17 8q37 19 37 60q0 28 -19.5 47.5t-47.5 19.5t-47.5 -19.5t-19.5 -47.5q0 -41 37 -60l17 -8l-107 -215l-170 68l7 18q5 12 5 24q0 28 -19.5 47.5t-47.5 19.5t-47.5 -19.5t-19.5 -47t19.5 -47t47.5 -19.5h11zM752 22h-480q-16 0 -26.5 -11t-10.5 -26v0
q0 -15 10.5 -26t26.5 -11h480q16 0 26.5 11t10.5 26v0q0 15 -10.5 26t-26.5 11v0z" />
    <glyph glyph-name="shuaxin" unicode="&#x247;" 
d="M857 506q-8 -4 -16.5 -0.5t-11.5 11.5q-40 96 -126.5 153.5t-190.5 57.5q-93 0 -172.5 -46t-125.5 -125.5t-46 -172.5t46 -172.5t125.5 -125.5t172.5 -46q104 0 190 57.5t127 152.5q3 9 11.5 12t16.5 -0.5t11.5 -11.5t-0.5 -16q-45 -108 -142 -172.5t-214 -64.5
q-105 0 -194 52t-141 141t-52 194t52 194t141 141t194 52q117 0 214 -64.5t143 -172.5q3 -8 -0.5 -16.5t-11.5 -11.5v0zM877 491h-236q-9 0 -15.5 6.5t-6.5 15.5t6.5 15t15.5 6h215v215q0 9 6 15.5t15 6.5t15.5 -6.5t6.5 -15.5v-236q0 -9 -6.5 -15.5t-15.5 -6.5v0z" />
    </font>
</defs>
</svg>
